<svg width="1018" height="718" viewBox="0 0 1018 718" fill="none" xmlns="http://www.w3.org/2000/svg">
<path d="M8.37755 3.01697H1009.79C1011.97 3.01697 1014.05 3.88226 1015.59 5.42247C1017.13 6.96269 1018 9.05168 1018 11.2299V654.79C1018 656.361 1017.69 657.917 1017.09 659.368C1016.49 660.82 1015.61 662.139 1014.5 663.25C1013.38 664.361 1012.07 665.242 1010.61 665.844C1009.16 666.445 1007.61 666.755 1006.04 666.755H6.71854C4.99547 666.755 3.34298 666.07 2.12458 664.852C0.906187 663.633 0.22168 661.981 0.22168 660.258V11.1728C0.221677 10.1018 0.432632 9.04123 0.842502 8.05171C1.25237 7.0622 1.85314 6.1631 2.61048 5.40576C3.36782 4.64842 4.26692 4.04766 5.25644 3.63779C6.24595 3.22792 7.30651 3.01697 8.37755 3.01697Z" fill="white"/>
<path d="M7.77751 0H1009.99C1012.1 0 1014.12 0.837106 1015.61 2.32716C1017.1 3.81722 1017.94 5.83817 1017.94 7.94543V46.2372H0V7.77751C0 5.71479 0.819412 3.73654 2.27798 2.27798C3.73654 0.819412 5.71478 0 7.77751 0Z" fill="#5F7EFB"/>
<path opacity="0.18" d="M207.174 90.1061H82.2789C78.6796 90.1061 75.7617 93.0239 75.7617 96.6233V97.4611C75.7617 101.06 78.6796 103.978 82.2789 103.978H207.174C210.774 103.978 213.692 101.06 213.692 97.4611V96.6233C213.692 93.0239 210.774 90.1061 207.174 90.1061Z" fill="#6695FF"/>
<path opacity="0.89" d="M883.163 504.965H47.2433C45.2582 504.912 43.3751 504.076 42.0078 502.64C40.6404 501.205 39.9006 499.286 39.9506 497.307V142.802C39.9079 141.114 40.5389 139.478 41.7049 138.253C42.871 137.029 44.4768 136.316 46.1696 136.271H189.095V242.189H883.163C885.148 242.242 887.031 243.078 888.398 244.514C889.766 245.949 890.505 247.868 890.455 249.847V497.307C890.505 499.286 889.766 501.205 888.398 502.64C887.031 504.076 885.148 504.912 883.163 504.965Z" fill="white"/>
<path d="M711.9 415.793H668.095C659.808 415.793 656.208 396.7 651.652 372.529C646.102 343.091 639.195 306.455 621.209 306.455C607.772 306.455 594.655 331.799 581.97 356.31C568.732 381.891 556.228 406.053 542.332 406.053C532.671 406.053 502.412 396.416 470.377 386.213C438.313 376.003 405.156 365.443 394.756 365.443C372.727 365.443 333.804 357.253 305.056 342.075C280.402 329.057 233.287 342.938 198.885 353.07C183.148 357.704 170.72 361.365 164.15 361.365C136.787 361.365 68.7264 350.912 68.041 350.807L68.2924 349.466C68.9747 349.572 136.912 360.006 164.15 360.006C170.483 360.006 183.43 356.192 198.423 351.777C233.092 341.564 280.582 327.582 305.807 340.899C334.329 355.959 372.923 364.084 394.756 364.084C405.412 364.084 438.691 374.682 470.873 384.931C501.38 394.647 532.926 404.694 542.332 404.694C555.278 404.694 568.159 379.803 580.617 355.733C594.093 329.691 606.822 305.095 621.209 305.095C640.457 305.095 647.188 340.799 653.127 372.299C657.211 393.967 661.07 414.433 668.095 414.433H711.421C717.278 410.551 721.652 402.305 726.28 393.579C734.61 377.868 744.054 360.062 765.543 360.062H955.399V361.421H765.543C744.994 361.421 735.768 378.82 727.627 394.169C722.863 403.152 718.364 411.636 712.094 415.668L711.9 415.793Z" fill="#5F7EFB" stroke="#5F7EFB" stroke-miterlimit="10"/>
<path d="M955.4 364.837C957.88 364.837 959.889 363.011 959.889 360.759C959.889 358.507 957.88 356.681 955.4 356.681C952.921 356.681 950.911 358.507 950.911 360.759C950.911 363.011 952.921 364.837 955.4 364.837Z" fill="#5F7EFB"/>
<path d="M955.399 365.514C954.422 365.469 953.48 365.152 952.691 364.602C951.901 364.052 951.298 363.293 950.956 362.42C950.615 361.546 950.55 360.596 950.769 359.688C950.989 358.779 951.483 357.952 952.191 357.309C952.899 356.666 953.79 356.235 954.753 356.069C955.715 355.904 956.708 356.011 957.607 356.378C958.506 356.746 959.272 357.356 959.811 358.134C960.349 358.913 960.636 359.824 960.636 360.757C960.602 362.049 960.031 363.275 959.049 364.167C958.067 365.058 956.755 365.543 955.399 365.514ZM955.399 357.359C954.701 357.39 954.029 357.617 953.464 358.01C952.9 358.403 952.47 358.945 952.226 359.569C951.982 360.193 951.935 360.871 952.092 361.52C952.249 362.169 952.602 362.76 953.108 363.219C953.614 363.679 954.25 363.987 954.937 364.105C955.625 364.223 956.334 364.146 956.976 363.884C957.618 363.622 958.166 363.186 958.55 362.63C958.935 362.074 959.14 361.423 959.14 360.757C959.115 359.834 958.708 358.958 958.007 358.321C957.305 357.684 956.368 357.338 955.399 357.358V357.359Z" fill="white"/>
<path d="M761.163 364.837C763.642 364.837 765.652 363.011 765.652 360.759C765.652 358.507 763.642 356.681 761.163 356.681C758.684 356.681 756.674 358.507 756.674 360.759C756.674 363.011 758.684 364.837 761.163 364.837Z" fill="#5F7EFB"/>
<path d="M761.161 365.514C760.184 365.469 759.242 365.152 758.452 364.602C757.662 364.052 757.059 363.293 756.718 362.42C756.376 361.546 756.311 360.596 756.531 359.688C756.75 358.779 757.245 357.952 757.953 357.309C758.661 356.666 759.552 356.235 760.514 356.069C761.477 355.904 762.469 356.011 763.369 356.378C764.268 356.746 765.034 357.356 765.573 358.134C766.111 358.913 766.398 359.824 766.398 360.757C766.363 362.049 765.792 363.275 764.811 364.167C763.829 365.058 762.517 365.543 761.161 365.514ZM761.161 357.359C760.463 357.39 759.79 357.617 759.226 358.01C758.662 358.403 758.231 358.945 757.987 359.569C757.743 360.193 757.697 360.871 757.854 361.52C758.01 362.169 758.364 362.76 758.869 363.219C759.375 363.679 760.011 363.987 760.699 364.105C761.387 364.223 762.095 364.146 762.738 363.884C763.38 363.622 763.927 363.186 764.312 362.63C764.697 362.074 764.902 361.423 764.902 360.757C764.877 359.834 764.469 358.958 763.768 358.321C763.067 357.684 762.129 357.338 761.161 357.358V357.359Z" fill="white"/>
<path d="M668.097 419.205C670.576 419.205 672.586 417.379 672.586 415.127C672.586 412.875 670.576 411.049 668.097 411.049C665.617 411.049 663.607 412.875 663.607 415.127C663.607 417.379 665.617 419.205 668.097 419.205Z" fill="#5F7EFB"/>
<path d="M668.096 419.882C667.118 419.837 666.177 419.52 665.387 418.97C664.597 418.42 663.994 417.661 663.652 416.788C663.311 415.914 663.246 414.964 663.465 414.056C663.685 413.147 664.179 412.32 664.887 411.677C665.596 411.034 666.486 410.603 667.449 410.437C668.412 410.272 669.404 410.379 670.303 410.746C671.202 411.114 671.969 411.724 672.507 412.502C673.046 413.281 673.333 414.192 673.333 415.125C673.298 416.417 672.727 417.643 671.745 418.535C670.764 419.426 669.451 419.911 668.096 419.882ZM668.096 411.727C667.398 411.759 666.725 411.985 666.161 412.378C665.597 412.771 665.166 413.313 664.922 413.937C664.678 414.561 664.631 415.239 664.788 415.888C664.945 416.537 665.298 417.128 665.804 417.588C666.31 418.047 666.946 418.355 667.634 418.473C668.321 418.591 669.03 418.514 669.672 418.252C670.315 417.99 670.862 417.554 671.247 416.998C671.631 416.442 671.837 415.791 671.837 415.125C671.812 414.202 671.404 413.326 670.703 412.689C670.002 412.052 669.064 411.706 668.096 411.726V411.727Z" fill="white"/>
<path d="M621.21 309.88C623.689 309.88 625.699 308.054 625.699 305.802C625.699 303.55 623.689 301.724 621.21 301.724C618.731 301.724 616.721 303.55 616.721 305.802C616.721 308.054 618.731 309.88 621.21 309.88Z" fill="#5F7EFB"/>
<path d="M621.209 310.557C620.232 310.512 619.29 310.195 618.5 309.645C617.71 309.095 617.107 308.336 616.766 307.463C616.424 306.589 616.359 305.639 616.579 304.731C616.798 303.822 617.293 302.995 618.001 302.352C618.709 301.709 619.599 301.278 620.562 301.112C621.525 300.947 622.517 301.054 623.416 301.421C624.316 301.788 625.082 302.399 625.62 303.177C626.159 303.956 626.446 304.867 626.446 305.8C626.411 307.092 625.84 308.318 624.859 309.209C623.877 310.101 622.565 310.586 621.209 310.557ZM621.209 302.401C620.511 302.433 619.838 302.66 619.274 303.053C618.71 303.446 618.279 303.988 618.035 304.612C617.791 305.236 617.745 305.914 617.902 306.563C618.058 307.212 618.412 307.803 618.917 308.262C619.423 308.722 620.059 309.03 620.747 309.148C621.435 309.266 622.143 309.189 622.786 308.927C623.428 308.665 623.975 308.229 624.36 307.673C624.745 307.117 624.95 306.466 624.95 305.8C624.925 304.877 624.517 304.001 623.816 303.364C623.115 302.727 622.177 302.381 621.209 302.401V302.401Z" fill="white"/>
<path d="M542.334 409.451C544.813 409.451 546.823 407.625 546.823 405.373C546.823 403.121 544.813 401.295 542.334 401.295C539.855 401.295 537.845 403.121 537.845 405.373C537.845 407.625 539.855 409.451 542.334 409.451Z" fill="#5F7EFB"/>
<path d="M542.333 410.128C541.356 410.083 540.414 409.766 539.624 409.216C538.834 408.666 538.231 407.907 537.89 407.034C537.548 406.16 537.483 405.21 537.703 404.302C537.922 403.393 538.417 402.566 539.125 401.923C539.833 401.28 540.723 400.848 541.686 400.683C542.649 400.518 543.641 400.625 544.54 400.992C545.44 401.359 546.206 401.97 546.745 402.748C547.283 403.526 547.57 404.438 547.57 405.371C547.535 406.663 546.964 407.889 545.983 408.78C545.001 409.672 543.689 410.157 542.333 410.128ZM542.333 401.972C541.635 402.004 540.962 402.231 540.398 402.624C539.834 403.017 539.403 403.559 539.159 404.183C538.915 404.807 538.869 405.485 539.026 406.134C539.182 406.783 539.536 407.374 540.041 407.833C540.547 408.293 541.183 408.601 541.871 408.719C542.558 408.837 543.267 408.76 543.91 408.498C544.552 408.236 545.099 407.8 545.484 407.244C545.869 406.688 546.074 406.037 546.074 405.371C546.049 404.448 545.641 403.572 544.94 402.935C544.239 402.298 543.301 401.952 542.333 401.972V401.972Z" fill="white"/>
<path d="M391.363 369.321C393.842 369.321 395.852 367.495 395.852 365.243C395.852 362.991 393.842 361.165 391.363 361.165C388.884 361.165 386.874 362.991 386.874 365.243C386.874 367.495 388.884 369.321 391.363 369.321Z" fill="#5F7EFB"/>
<path d="M391.362 369.999C390.385 369.954 389.443 369.637 388.653 369.087C387.864 368.537 387.261 367.778 386.919 366.904C386.577 366.031 386.512 365.081 386.732 364.172C386.952 363.264 387.446 362.436 388.154 361.793C388.862 361.15 389.753 360.719 390.715 360.554C391.678 360.388 392.671 360.496 393.57 360.863C394.469 361.23 395.235 361.84 395.774 362.619C396.312 363.397 396.599 364.309 396.599 365.241C396.564 366.533 395.994 367.759 395.012 368.651C394.03 369.543 392.718 370.027 391.362 369.999ZM391.362 361.843C390.664 361.875 389.992 362.101 389.427 362.494C388.863 362.887 388.432 363.429 388.189 364.053C387.945 364.677 387.898 365.356 388.055 366.005C388.212 366.654 388.565 367.244 389.071 367.704C389.576 368.163 390.213 368.471 390.9 368.589C391.588 368.708 392.297 368.631 392.939 368.369C393.581 368.106 394.129 367.67 394.513 367.114C394.898 366.558 395.103 365.907 395.103 365.241C395.078 364.318 394.671 363.442 393.969 362.805C393.268 362.168 392.331 361.822 391.362 361.843Z" fill="white"/>
<path d="M305.433 345.59C307.913 345.59 309.923 343.765 309.923 341.513C309.923 339.26 307.913 337.435 305.433 337.435C302.954 337.435 300.944 339.26 300.944 341.513C300.944 343.765 302.954 345.59 305.433 345.59Z" fill="#5F7EFB"/>
<path d="M305.432 346.268C304.454 346.223 303.513 345.906 302.723 345.356C301.933 344.806 301.33 344.047 300.988 343.173C300.647 342.3 300.582 341.35 300.801 340.441C301.021 339.533 301.515 338.706 302.223 338.062C302.931 337.419 303.822 336.988 304.785 336.823C305.747 336.657 306.74 336.765 307.639 337.132C308.538 337.499 309.305 338.11 309.843 338.888C310.382 339.666 310.669 340.578 310.669 341.51C310.634 342.802 310.063 344.028 309.081 344.92C308.1 345.812 306.787 346.296 305.432 346.268ZM305.432 338.112C304.734 338.144 304.061 338.371 303.497 338.763C302.933 339.156 302.502 339.698 302.258 340.322C302.014 340.946 301.967 341.625 302.124 342.274C302.281 342.923 302.634 343.514 303.14 343.973C303.646 344.433 304.282 344.74 304.97 344.859C305.657 344.977 306.366 344.9 307.008 344.638C307.651 344.375 308.198 343.939 308.583 343.383C308.967 342.828 309.172 342.176 309.172 341.51C309.148 340.587 308.74 339.711 308.039 339.074C307.338 338.437 306.4 338.091 305.432 338.112V338.112Z" fill="white"/>
<path d="M164.151 364.771C166.63 364.771 168.64 362.946 168.64 360.693C168.64 358.441 166.63 356.616 164.151 356.616C161.672 356.616 159.662 358.441 159.662 360.693C159.662 362.946 161.672 364.771 164.151 364.771Z" fill="#5F7EFB"/>
<path d="M164.15 365.449C163.173 365.404 162.231 365.087 161.442 364.537C160.652 363.987 160.049 363.228 159.707 362.354C159.366 361.481 159.301 360.531 159.52 359.622C159.74 358.714 160.234 357.887 160.942 357.243C161.65 356.6 162.541 356.169 163.504 356.004C164.466 355.838 165.459 355.946 166.358 356.313C167.257 356.68 168.023 357.291 168.562 358.069C169.1 358.847 169.388 359.759 169.388 360.691C169.353 361.983 168.782 363.21 167.8 364.101C166.818 364.993 165.506 365.478 164.15 365.449ZM164.15 357.293C163.452 357.325 162.78 357.552 162.215 357.944C161.651 358.337 161.221 358.879 160.977 359.503C160.733 360.127 160.686 360.806 160.843 361.455C161 362.104 161.353 362.695 161.859 363.154C162.364 363.614 163.001 363.921 163.688 364.04C164.376 364.158 165.085 364.081 165.727 363.819C166.369 363.557 166.917 363.12 167.301 362.565C167.686 362.009 167.891 361.357 167.891 360.691C167.866 359.768 167.459 358.892 166.758 358.255C166.056 357.618 165.119 357.272 164.15 357.293V357.293Z" fill="white"/>
<path d="M64.5873 355.879C68.7615 355.879 72.1454 352.805 72.1454 349.014C72.1454 345.222 68.7615 342.148 64.5873 342.148C60.4131 342.148 57.0293 345.222 57.0293 349.014C57.0293 352.805 60.4131 355.879 64.5873 355.879Z" fill="#5F7EFB"/>
<path opacity="0.79" d="M64.5863 356.999C62.9413 356.924 61.3556 356.39 60.0259 355.464C58.6962 354.538 57.6808 353.26 57.1058 351.789C56.5307 350.318 56.4212 348.719 56.7908 347.189C57.1604 345.66 57.9929 344.267 59.1851 343.184C60.3772 342.101 61.8767 341.375 63.4974 341.097C65.1182 340.819 66.7892 341 68.303 341.618C69.8169 342.236 71.1072 343.264 72.014 344.574C72.9207 345.884 73.404 347.419 73.404 348.989C73.3452 351.164 72.3841 353.229 70.7314 354.73C69.0786 356.231 66.8689 357.047 64.5863 356.999ZM64.5863 343.268C63.4113 343.321 62.2787 343.703 61.3289 344.364C60.3791 345.026 59.6538 345.938 59.2431 346.989C58.8323 348.039 58.7541 349.182 59.0181 350.274C59.2821 351.367 59.8767 352.362 60.7283 353.135C61.5798 353.909 62.6508 354.427 63.8086 354.626C64.9663 354.825 66.1598 354.696 67.2411 354.254C68.3225 353.813 69.2441 353.079 69.8918 352.143C70.5394 351.207 70.8847 350.11 70.8847 348.989C70.8431 347.435 70.1567 345.96 68.9761 344.888C67.7955 343.815 66.2169 343.233 64.5863 343.268Z" fill="white"/>
<path d="M711.664 419.205C714.143 419.205 716.153 417.379 716.153 415.127C716.153 412.875 714.143 411.049 711.664 411.049C709.185 411.049 707.175 412.875 707.175 415.127C707.175 417.379 709.185 419.205 711.664 419.205Z" fill="#5F7EFB"/>
<path d="M711.662 419.882C710.685 419.837 709.743 419.52 708.953 418.97C708.164 418.42 707.56 417.661 707.219 416.788C706.877 415.914 706.812 414.964 707.032 414.056C707.251 413.147 707.746 412.32 708.454 411.677C709.162 411.034 710.053 410.603 711.015 410.437C711.978 410.272 712.97 410.379 713.87 410.746C714.769 411.114 715.535 411.724 716.074 412.502C716.612 413.281 716.899 414.192 716.899 415.125C716.864 416.417 716.293 417.643 715.312 418.535C714.33 419.426 713.018 419.911 711.662 419.882ZM711.662 411.727C710.964 411.759 710.291 411.985 709.727 412.378C709.163 412.771 708.732 413.313 708.488 413.937C708.244 414.561 708.198 415.239 708.355 415.888C708.511 416.537 708.865 417.128 709.37 417.588C709.876 418.047 710.512 418.355 711.2 418.473C711.888 418.591 712.597 418.514 713.239 418.252C713.881 417.99 714.428 417.554 714.813 416.998C715.198 416.442 715.403 415.791 715.403 415.125C715.378 414.202 714.971 413.326 714.269 412.689C713.568 412.052 712.631 411.706 711.662 411.726V411.727Z" fill="white"/>
<path d="M164.151 367.565C168.325 367.565 171.709 364.491 171.709 360.699C171.709 356.907 168.325 353.833 164.151 353.833C159.977 353.833 156.593 356.907 156.593 360.699C156.593 364.491 159.977 367.565 164.151 367.565Z" fill="#5F7EFB"/>
<path d="M164.15 368.717C162.505 368.642 160.919 368.108 159.589 367.182C158.26 366.256 157.244 364.978 156.669 363.507C156.094 362.036 155.985 360.437 156.354 358.907C156.724 357.378 157.556 355.985 158.749 354.902C159.941 353.819 161.44 353.094 163.061 352.815C164.682 352.537 166.353 352.718 167.867 353.336C169.38 353.954 170.671 354.982 171.577 356.292C172.484 357.602 172.968 359.137 172.968 360.707C172.909 362.882 171.948 364.947 170.295 366.448C168.642 367.949 166.432 368.765 164.15 368.717ZM164.15 354.986C162.975 355.039 161.842 355.421 160.892 356.082C159.943 356.744 159.217 357.656 158.807 358.707C158.396 359.758 158.318 360.9 158.582 361.993C158.846 363.085 159.44 364.08 160.292 364.853C161.143 365.627 162.214 366.145 163.372 366.344C164.53 366.543 165.723 366.414 166.805 365.972C167.886 365.531 168.808 364.797 169.455 363.861C170.103 362.925 170.448 361.828 170.448 360.707C170.407 359.153 169.72 357.678 168.54 356.606C167.359 355.533 165.78 354.951 164.15 354.986V354.986Z" fill="white"/>
<path d="M305.434 348.351C309.608 348.351 312.992 345.277 312.992 341.485C312.992 337.694 309.608 334.62 305.434 334.62C301.26 334.62 297.876 337.694 297.876 341.485C297.876 345.277 301.26 348.351 305.434 348.351Z" fill="#5F7EFB"/>
<path d="M305.432 349.503C303.787 349.428 302.201 348.894 300.872 347.968C299.542 347.042 298.527 345.764 297.951 344.293C297.376 342.822 297.267 341.223 297.637 339.693C298.006 338.164 298.839 336.771 300.031 335.688C301.223 334.605 302.722 333.88 304.343 333.601C305.964 333.323 307.635 333.504 309.149 334.122C310.663 334.74 311.953 335.768 312.86 337.078C313.766 338.388 314.25 339.924 314.25 341.493C314.191 343.669 313.23 345.733 311.577 347.234C309.924 348.736 307.715 349.551 305.432 349.503ZM305.432 335.772C304.257 335.826 303.124 336.207 302.175 336.868C301.225 337.53 300.5 338.443 300.089 339.493C299.678 340.544 299.6 341.686 299.864 342.779C300.128 343.871 300.722 344.866 301.574 345.64C302.426 346.413 303.497 346.931 304.654 347.13C305.812 347.329 307.005 347.2 308.087 346.758C309.168 346.317 310.09 345.583 310.737 344.647C311.385 343.711 311.73 342.614 311.73 341.493C311.689 339.939 311.002 338.464 309.822 337.392C308.641 336.319 307.063 335.737 305.432 335.772Z" fill="white"/>
<path d="M391.362 372.016C395.536 372.016 398.92 368.942 398.92 365.151C398.92 361.359 395.536 358.285 391.362 358.285C387.188 358.285 383.804 361.359 383.804 365.151C383.804 368.942 387.188 372.016 391.362 372.016Z" fill="#5F7EFB"/>
<path d="M391.363 373.136C389.718 373.06 388.132 372.527 386.802 371.601C385.473 370.674 384.457 369.397 383.882 367.926C383.307 366.455 383.198 364.856 383.567 363.326C383.937 361.796 384.769 360.404 385.961 359.321C387.154 358.238 388.653 357.512 390.274 357.234C391.895 356.955 393.565 357.136 395.079 357.754C396.593 358.372 397.884 359.4 398.79 360.711C399.697 362.021 400.18 363.556 400.18 365.126C400.122 367.301 399.16 369.366 397.508 370.867C395.855 372.368 393.645 373.184 391.363 373.136ZM391.363 359.404C390.188 359.458 389.055 359.839 388.105 360.501C387.155 361.162 386.43 362.075 386.019 363.126C385.609 364.176 385.53 365.319 385.794 366.411C386.058 367.504 386.653 368.499 387.505 369.272C388.356 370.046 389.427 370.564 390.585 370.763C391.743 370.962 392.936 370.833 394.017 370.391C395.099 369.95 396.02 369.215 396.668 368.279C397.316 367.343 397.661 366.247 397.661 365.126C397.619 363.572 396.933 362.097 395.752 361.024C394.572 359.952 392.993 359.369 391.363 359.404Z" fill="white"/>
<path d="M542.333 412.244C546.508 412.244 549.891 409.17 549.891 405.378C549.891 401.586 546.508 398.513 542.333 398.513C538.159 398.513 534.775 401.586 534.775 405.378C534.775 409.17 538.159 412.244 542.333 412.244Z" fill="#5F7EFB"/>
<path d="M542.332 413.396C540.687 413.321 539.102 412.787 537.772 411.861C536.442 410.935 535.427 409.657 534.852 408.186C534.277 406.715 534.167 405.116 534.537 403.586C534.907 402.057 535.739 400.664 536.931 399.581C538.123 398.498 539.623 397.773 541.244 397.494C542.864 397.216 544.535 397.397 546.049 398.015C547.563 398.633 548.853 399.661 549.76 400.971C550.667 402.281 551.15 403.817 551.15 405.386C551.091 407.562 550.13 409.626 548.477 411.127C546.825 412.629 544.615 413.444 542.332 413.396ZM542.332 399.665C541.157 399.719 540.025 400.1 539.075 400.761C538.125 401.423 537.4 402.336 536.989 403.386C536.578 404.437 536.5 405.579 536.764 406.672C537.028 407.764 537.623 408.759 538.474 409.533C539.326 410.306 540.397 410.824 541.555 411.023C542.712 411.222 543.906 411.093 544.987 410.651C546.069 410.21 546.99 409.476 547.638 408.54C548.286 407.604 548.631 406.507 548.631 405.386C548.589 403.832 547.903 402.357 546.722 401.285C545.542 400.212 543.963 399.63 542.332 399.665Z" fill="white"/>
<path d="M621.208 312.64C625.383 312.64 628.766 309.566 628.766 305.775C628.766 301.983 625.383 298.909 621.208 298.909C617.034 298.909 613.65 301.983 613.65 305.775C613.65 309.566 617.034 312.64 621.208 312.64Z" fill="#5F7EFB"/>
<path d="M621.208 313.793C619.563 313.717 617.978 313.183 616.648 312.257C615.318 311.331 614.303 310.054 613.728 308.583C613.153 307.112 613.043 305.512 613.413 303.983C613.782 302.453 614.615 301.061 615.807 299.978C616.999 298.895 618.499 298.169 620.12 297.891C621.74 297.612 623.411 297.793 624.925 298.411C626.439 299.029 627.729 300.057 628.636 301.367C629.543 302.678 630.026 304.213 630.026 305.783C629.967 307.958 629.006 310.022 627.353 311.524C625.701 313.025 623.491 313.841 621.208 313.793ZM621.208 300.061C620.033 300.115 618.901 300.496 617.951 301.158C617.001 301.819 616.276 302.732 615.865 303.782C615.454 304.833 615.376 305.975 615.64 307.068C615.904 308.161 616.499 309.155 617.35 309.929C618.202 310.702 619.273 311.221 620.431 311.42C621.588 311.619 622.782 311.489 623.863 311.048C624.945 310.606 625.866 309.872 626.514 308.936C627.162 308 627.507 306.904 627.507 305.783C627.465 304.229 626.779 302.754 625.598 301.681C624.418 300.609 622.839 300.026 621.208 300.061Z" fill="white"/>
<path d="M668.096 421.998C672.27 421.998 675.654 418.924 675.654 415.132C675.654 411.341 672.27 408.267 668.096 408.267C663.922 408.267 660.538 411.341 660.538 415.132C660.538 418.924 663.922 421.998 668.096 421.998Z" fill="#5F7EFB"/>
<path d="M668.095 423.15C666.45 423.075 664.864 422.541 663.535 421.615C662.205 420.689 661.19 419.411 660.615 417.94C660.039 416.47 659.93 414.87 660.3 413.341C660.669 411.811 661.502 410.418 662.694 409.336C663.886 408.253 665.385 407.527 667.006 407.248C668.627 406.97 670.298 407.151 671.812 407.769C673.326 408.387 674.616 409.415 675.523 410.725C676.429 412.036 676.913 413.571 676.913 415.14C676.854 417.316 675.893 419.38 674.24 420.881C672.587 422.383 670.378 423.199 668.095 423.15ZM668.095 409.419C666.92 409.473 665.787 409.854 664.838 410.516C663.888 411.177 663.163 412.09 662.752 413.14C662.341 414.191 662.263 415.333 662.527 416.426C662.791 417.518 663.385 418.513 664.237 419.287C665.089 420.06 666.16 420.579 667.317 420.777C668.475 420.976 669.669 420.847 670.75 420.406C671.831 419.964 672.753 419.23 673.401 418.294C674.048 417.358 674.393 416.262 674.393 415.14C674.352 413.586 673.666 412.112 672.485 411.039C671.304 409.967 669.726 409.384 668.095 409.419Z" fill="white"/>
<path d="M711.663 421.998C715.837 421.998 719.221 418.924 719.221 415.132C719.221 411.341 715.837 408.267 711.663 408.267C707.488 408.267 704.104 411.341 704.104 415.132C704.104 418.924 707.488 421.998 711.663 421.998Z" fill="#5F7EFB"/>
<path d="M711.662 423.15C710.017 423.075 708.432 422.541 707.102 421.615C705.772 420.689 704.757 419.411 704.182 417.94C703.607 416.47 703.497 414.87 703.867 413.341C704.237 411.811 705.069 410.418 706.261 409.336C707.453 408.253 708.953 407.527 710.574 407.248C712.194 406.97 713.865 407.151 715.379 407.769C716.893 408.387 718.183 409.415 719.09 410.725C719.997 412.036 720.48 413.571 720.48 415.14C720.421 417.316 719.46 419.38 717.808 420.881C716.155 422.383 713.945 423.199 711.662 423.15ZM711.662 409.419C710.487 409.473 709.355 409.854 708.405 410.516C707.455 411.177 706.73 412.09 706.319 413.14C705.908 414.191 705.83 415.333 706.094 416.426C706.358 417.518 706.953 418.513 707.804 419.287C708.656 420.06 709.727 420.579 710.885 420.777C712.042 420.976 713.236 420.847 714.317 420.406C715.399 419.964 716.32 419.23 716.968 418.294C717.616 417.358 717.961 416.262 717.961 415.14C717.919 413.586 717.233 412.112 716.052 411.039C714.872 409.967 713.293 409.384 711.662 409.419Z" fill="white"/>
<path d="M761.163 367.63C765.337 367.63 768.721 364.556 768.721 360.764C768.721 356.973 765.337 353.899 761.163 353.899C756.988 353.899 753.604 356.973 753.604 360.764C753.604 364.556 756.988 367.63 761.163 367.63Z" fill="#5F7EFB"/>
<path d="M761.162 368.75C759.517 368.674 757.932 368.14 756.602 367.214C755.272 366.288 754.257 365.011 753.682 363.54C753.107 362.069 752.997 360.47 753.367 358.94C753.737 357.41 754.569 356.018 755.761 354.935C756.953 353.852 758.453 353.126 760.074 352.848C761.694 352.569 763.365 352.75 764.879 353.368C766.393 353.986 767.683 355.014 768.59 356.325C769.497 357.635 769.98 359.17 769.98 360.74C769.921 362.915 768.96 364.979 767.308 366.481C765.655 367.982 763.445 368.798 761.162 368.75ZM761.162 355.018C759.987 355.072 758.855 355.453 757.905 356.115C756.955 356.776 756.23 357.689 755.819 358.74C755.408 359.79 755.33 360.933 755.594 362.025C755.858 363.118 756.453 364.112 757.304 364.886C758.156 365.66 759.227 366.178 760.385 366.377C761.542 366.576 762.736 366.446 763.817 366.005C764.899 365.563 765.82 364.829 766.468 363.893C767.116 362.957 767.461 361.861 767.461 360.74C767.419 359.186 766.733 357.711 765.552 356.638C764.372 355.566 762.793 354.983 761.162 355.018Z" fill="white"/>
<path d="M955.399 367.63C959.573 367.63 962.957 364.556 962.957 360.764C962.957 356.973 959.573 353.899 955.399 353.899C951.225 353.899 947.841 356.973 947.841 360.764C947.841 364.556 951.225 367.63 955.399 367.63Z" fill="#5F7EFB"/>
<path d="M955.399 368.75C953.754 368.674 952.168 368.14 950.838 367.214C949.509 366.288 948.493 365.011 947.918 363.54C947.343 362.069 947.234 360.47 947.603 358.94C947.973 357.41 948.805 356.018 949.998 354.935C951.19 353.852 952.689 353.126 954.31 352.848C955.931 352.569 957.602 352.75 959.116 353.368C960.629 353.986 961.92 355.014 962.826 356.325C963.733 357.635 964.217 359.17 964.217 360.74C964.158 362.915 963.197 364.979 961.544 366.481C959.891 367.982 957.681 368.798 955.399 368.75ZM955.399 355.018C954.224 355.072 953.091 355.453 952.141 356.115C951.192 356.776 950.466 357.689 950.056 358.74C949.645 359.79 949.567 360.933 949.831 362.025C950.095 363.118 950.689 364.112 951.541 364.886C952.392 365.66 953.463 366.178 954.621 366.377C955.779 366.576 956.972 366.446 958.054 366.005C959.135 365.563 960.057 364.829 960.704 363.893C961.352 362.957 961.697 361.861 961.697 360.74C961.656 359.186 960.969 357.711 959.789 356.638C958.608 355.566 957.029 354.983 955.399 355.018Z" fill="white"/>
<g opacity="0.47">
<g opacity="0.47">
<path opacity="0.47" d="M54.7119 276.913H60.7335" stroke="#00D775" stroke-miterlimit="10"/>
<path opacity="0.47" d="M72.8428 276.913H865.947" stroke="#00D775" stroke-miterlimit="10" stroke-dasharray="5.03 5.03"/>
<path opacity="0.47" d="M872.001 276.913H878.023" stroke="#00D775" stroke-miterlimit="10"/>
</g>
</g>
<path opacity="0.12" d="M189.658 136.165H881.607C883.506 136.165 885.327 136.92 886.67 138.262C888.013 139.605 888.767 141.426 888.767 143.325V236.754H189.658V136.165Z" fill="#9FB2FD"/>
<path opacity="0.17" d="M266.517 194.068H245.153C240.901 194.068 237.455 197.515 237.455 201.766V202.755C237.455 207.007 240.901 210.453 245.153 210.453H266.517C270.769 210.453 274.215 207.007 274.215 202.755V201.766C274.215 197.515 270.769 194.068 266.517 194.068Z" fill="#475980"/>
<path opacity="0.17" d="M321.595 171.123H242.284C239.617 171.123 237.455 173.285 237.455 175.952V176.573C237.455 179.24 239.617 181.402 242.284 181.402H321.595C324.262 181.402 326.424 179.24 326.424 176.573V175.952C326.424 173.285 324.262 171.123 321.595 171.123Z" fill="#475980"/>
<g opacity="0.17">
<path opacity="0.17" d="M335.894 181.183C337.913 181.183 339.549 179.546 339.549 177.528C339.549 175.509 337.913 173.873 335.894 173.873C333.876 173.873 332.239 175.509 332.239 177.528C332.239 179.546 333.876 181.183 335.894 181.183Z" fill="#00D775"/>
</g>
<path opacity="0.17" d="M312.562 200.484H291.941C289.274 200.484 287.112 202.646 287.112 205.313V205.934C287.112 208.601 289.274 210.763 291.941 210.763H312.562C315.229 210.763 317.391 208.601 317.391 205.934V205.313C317.391 202.646 315.229 200.484 312.562 200.484Z" fill="#FF5259"/>
<path opacity="0.17" d="M517.105 192.268H482.522C478.271 192.268 474.824 195.714 474.824 199.966V200.955C474.824 205.206 478.271 208.653 482.522 208.653H517.105C521.356 208.653 524.802 205.206 524.802 200.955V199.966C524.802 195.714 521.356 192.268 517.105 192.268Z" fill="#475980"/>
<path opacity="0.17" d="M575.723 169.356H479.653C476.986 169.356 474.824 171.518 474.824 174.185V174.806C474.824 177.473 476.986 179.635 479.653 179.635H575.723C578.39 179.635 580.552 177.473 580.552 174.806V174.185C580.552 171.518 578.39 169.356 575.723 169.356Z" fill="#475980"/>
<g opacity="0.17">
<path opacity="0.17" d="M591.607 179.186C593.626 179.186 595.262 177.55 595.262 175.531C595.262 173.512 593.626 171.876 591.607 171.876C589.589 171.876 587.952 173.512 587.952 175.531C587.952 177.55 589.589 179.186 591.607 179.186Z" fill="#00D775"/>
</g>
<path opacity="0.17" d="M550.608 198.454H541.684C539.017 198.454 536.854 200.616 536.854 203.284V203.904C536.854 206.571 539.017 208.734 541.684 208.734H550.608C553.275 208.734 555.437 206.571 555.437 203.904V203.284C555.437 200.616 553.275 198.454 550.608 198.454Z" fill="#475980"/>
<path opacity="0.17" d="M776.631 192.595H741.447C737.195 192.595 733.749 196.042 733.749 200.293V201.283C733.749 205.534 737.195 208.98 741.447 208.98H776.631C780.882 208.98 784.329 205.534 784.329 201.283V200.293C784.329 196.042 780.882 192.595 776.631 192.595Z" fill="#475980"/>
<path opacity="0.17" d="M790.215 169.65H738.578C735.911 169.65 733.749 171.812 733.749 174.479V175.1C733.749 177.767 735.911 179.929 738.578 179.929H790.215C792.882 179.929 795.044 177.767 795.044 175.1V174.479C795.044 171.812 792.882 169.65 790.215 169.65Z" fill="#475980"/>
<g opacity="0.17">
<path opacity="0.17" d="M806.936 179.481C808.955 179.481 810.591 177.844 810.591 175.826C810.591 173.807 808.955 172.171 806.936 172.171C804.918 172.171 803.281 173.807 803.281 175.826C803.281 177.844 804.918 179.481 806.936 179.481Z" fill="#FF5259"/>
</g>
<path opacity="0.17" d="M822.843 198.749H802.223C799.556 198.749 797.394 200.911 797.394 203.578V204.199C797.394 206.866 799.556 209.028 802.223 209.028H822.843C825.51 209.028 827.672 206.866 827.672 204.199V203.578C827.672 200.911 825.51 198.749 822.843 198.749Z" fill="#FF5259"/>
<path opacity="0.89" d="M47.6676 136.271H188.683V236.824H39.9482V143.988C39.9482 141.941 40.7615 139.978 42.2092 138.531C43.6569 137.084 45.6203 136.271 47.6676 136.271Z" fill="white"/>
<path d="M66.5833 168.435H60.9404V166.84H62.8457V156.204H60.9404V154.64H66.5833V156.204H64.6805V166.84H66.5833V168.435Z" fill="#7E90B2"/>
<path d="M76.4412 165.627C76.4611 166.065 76.3777 166.501 76.198 166.9C76.0182 167.299 75.7469 167.65 75.4063 167.925C74.5461 168.532 73.5045 168.826 72.4543 168.758C71.6462 168.771 70.8454 168.603 70.1115 168.264C69.4677 167.979 68.9355 167.491 68.5967 166.874L69.9727 166.037C70.4601 166.661 71.1563 167.089 71.9336 167.241C72.7109 167.394 73.517 167.261 74.2043 166.867C74.3858 166.732 74.5317 166.555 74.6297 166.351C74.7276 166.146 74.7745 165.922 74.7664 165.696C74.7777 165.443 74.7086 165.194 74.569 164.983C74.4035 164.777 74.1915 164.613 73.9503 164.505C73.3938 164.277 72.8205 164.092 72.2356 163.953C71.2695 163.798 70.3624 163.388 69.6082 162.765C69.3503 162.499 69.1497 162.183 69.0186 161.837C68.8875 161.491 68.8288 161.121 68.8461 160.751C68.8311 160.329 68.9132 159.909 69.0861 159.524C69.2591 159.138 69.5181 158.798 69.8434 158.528C70.6347 157.929 71.614 157.632 72.6049 157.691C73.4029 157.663 74.1938 157.849 74.8959 158.23C75.456 158.533 75.9247 158.98 76.2531 159.526L74.8865 160.363C74.4771 159.776 73.8628 159.364 73.1645 159.207C72.4662 159.05 71.7346 159.161 71.1136 159.516C70.9187 159.642 70.7609 159.817 70.6566 160.023C70.5524 160.23 70.5055 160.461 70.5208 160.692C70.5053 160.894 70.5453 161.097 70.6365 161.277C70.7277 161.458 70.8667 161.611 71.0383 161.718C71.5481 161.993 72.0958 162.191 72.6637 162.306C73.5134 162.491 74.3373 162.78 75.117 163.165C75.5332 163.395 75.8794 163.734 76.119 164.145C76.3491 164.605 76.4599 165.114 76.4412 165.627Z" fill="#7E90B2"/>
<path d="M86.323 165.627C86.3429 166.065 86.2596 166.501 86.0798 166.9C85.9 167.299 85.6288 167.65 85.2881 167.925C84.428 168.532 83.3863 168.826 82.3361 168.758C81.528 168.771 80.7273 168.603 79.9933 168.264C79.3496 167.979 78.8173 167.491 78.4785 166.874L79.8545 166.037C80.342 166.661 81.0382 167.089 81.8154 167.241C82.5927 167.394 83.3989 167.261 84.0861 166.867C84.2676 166.732 84.4136 166.555 84.5115 166.35C84.6094 166.146 84.6564 165.922 84.6483 165.696C84.6596 165.443 84.5904 165.194 84.4508 164.983C84.2853 164.777 84.0733 164.613 83.8321 164.505C83.2756 164.277 82.7024 164.092 82.1174 163.953C81.1514 163.798 80.2443 163.388 79.49 162.765C79.2322 162.499 79.0315 162.183 78.9004 161.837C78.7693 161.491 78.7106 161.121 78.7279 160.751C78.7129 160.329 78.7951 159.909 78.968 159.524C79.1409 159.138 79.4 158.798 79.7252 158.528C80.5165 157.929 81.4958 157.632 82.4867 157.691C83.2847 157.663 84.0757 157.849 84.7777 158.23C85.3379 158.533 85.8066 158.98 86.135 159.526L84.7683 160.363C84.3589 159.776 83.7446 159.364 83.0463 159.207C82.348 159.05 81.6164 159.161 80.9954 159.516C80.8005 159.641 80.6427 159.817 80.5384 160.023C80.4342 160.23 80.3873 160.461 80.4027 160.692C80.3871 160.894 80.4271 161.097 80.5183 161.277C80.6096 161.458 80.7485 161.611 80.9202 161.718C81.4299 161.993 81.9776 162.191 82.5455 162.306C83.3952 162.491 84.2191 162.78 84.9988 163.165C85.415 163.395 85.7612 163.734 86.0008 164.145C86.231 164.605 86.3418 165.114 86.323 165.627Z" fill="#7E90B2"/>
<path d="M95.5461 168.436V166.881C95.0259 167.405 94.4353 167.853 93.7915 168.213C93.2227 168.549 92.5771 168.733 91.9168 168.747C91.3244 168.773 90.7363 168.636 90.2161 168.352C89.7718 168.079 89.4372 167.66 89.2706 167.166C89.0473 166.455 88.9478 165.711 88.9765 164.967V157.978H90.6913V164.151C90.6603 164.818 90.7116 165.488 90.8442 166.143C90.9189 166.435 91.0937 166.691 91.3381 166.867C91.6394 167.034 91.9822 167.112 92.326 167.091C92.8688 167.056 93.3936 166.883 93.8502 166.587C94.4533 166.239 95.0212 165.833 95.5461 165.376V157.978H97.2609V168.436L95.5461 168.436Z" fill="#7E90B2"/>
<path d="M101.895 163.428C101.803 164.464 102.052 165.502 102.603 166.384C102.888 166.697 103.242 166.939 103.637 167.092C104.031 167.245 104.456 167.304 104.877 167.266C105.304 167.275 105.726 167.174 106.103 166.972C106.506 166.731 106.852 166.406 107.119 166.02L108.535 166.897C108.166 167.466 107.667 167.939 107.079 168.278C106.359 168.634 105.56 168.8 104.757 168.762C104.112 168.812 103.463 168.716 102.86 168.481C102.256 168.246 101.713 167.878 101.271 167.405C100.417 166.217 100.01 164.766 100.121 163.308C100.003 161.808 100.399 160.312 101.243 159.067C101.664 158.593 102.188 158.223 102.775 157.985C103.362 157.747 103.996 157.648 104.628 157.695C105.191 157.653 105.756 157.736 106.284 157.939C106.811 158.141 107.286 158.458 107.676 158.867C108.436 159.907 108.797 161.186 108.695 162.47V163.428H101.895ZM107.02 162.082C107.053 161.311 106.846 160.548 106.427 159.899C106.204 159.628 105.918 159.415 105.594 159.279C105.269 159.143 104.917 159.089 104.567 159.121C104.227 159.096 103.886 159.145 103.568 159.267C103.251 159.389 102.963 159.579 102.727 159.824C102.245 160.483 101.963 161.267 101.916 162.082H107.02Z" fill="#7E90B2"/>
<path d="M118.571 165.627C118.591 166.065 118.508 166.501 118.328 166.9C118.148 167.299 117.877 167.65 117.536 167.925C116.676 168.532 115.634 168.826 114.584 168.758C113.776 168.771 112.975 168.603 112.241 168.264C111.598 167.979 111.065 167.491 110.727 166.874L112.103 166.037C112.59 166.661 113.286 167.089 114.064 167.241C114.841 167.394 115.647 167.261 116.334 166.867C116.516 166.732 116.662 166.555 116.76 166.351C116.857 166.146 116.904 165.922 116.896 165.696C116.908 165.443 116.838 165.194 116.699 164.983C116.533 164.777 116.321 164.613 116.08 164.505C115.524 164.277 114.95 164.092 114.365 163.953C113.399 163.798 112.492 163.388 111.738 162.765C111.48 162.499 111.28 162.183 111.148 161.837C111.017 161.491 110.959 161.121 110.976 160.751C110.961 160.329 111.043 159.909 111.216 159.524C111.389 159.138 111.648 158.798 111.973 158.528C112.765 157.929 113.744 157.632 114.735 157.691C115.533 157.663 116.324 157.849 117.026 158.23C117.586 158.533 118.055 158.98 118.383 159.526L117.016 160.363C116.607 159.776 115.993 159.364 115.294 159.207C114.596 159.05 113.864 159.161 113.243 159.516C113.049 159.642 112.891 159.817 112.786 160.023C112.682 160.23 112.635 160.461 112.651 160.692C112.635 160.894 112.675 161.097 112.766 161.277C112.858 161.458 112.997 161.611 113.168 161.718C113.678 161.993 114.226 162.191 114.794 162.306C115.643 162.491 116.467 162.78 117.247 163.165C117.663 163.395 118.009 163.734 118.249 164.145C118.479 164.605 118.59 165.114 118.571 165.627Z" fill="#7E90B2"/>
<path d="M68.9804 211.31H65.7672L74.3363 192.246H62.1025V189.63H77.2506V192.323L68.9804 211.31Z" fill="#4C6083"/>
<path d="M87.228 203.005C86.4044 203.081 85.5747 202.955 84.8105 202.638C84.0463 202.322 83.3704 201.825 82.8412 201.189C81.8589 199.679 81.3873 197.894 81.4957 196.097C81.4957 191.482 83.4065 189.174 87.228 189.174C88.0575 189.103 88.892 189.234 89.6592 189.557C90.4264 189.881 91.1033 190.386 91.6313 191.03C92.6245 192.526 93.108 194.303 93.0097 196.097C93.1143 197.896 92.6241 199.68 91.6148 201.173C91.0844 201.808 90.4088 202.306 89.6453 202.625C88.8817 202.944 88.0526 203.074 87.228 203.005ZM87.228 200.907C87.6676 200.944 88.1093 200.867 88.5104 200.683C88.9114 200.5 89.2581 200.215 89.5167 199.858C90.4601 197.431 90.4542 194.737 89.5002 192.314C89.2445 191.957 88.901 191.672 88.503 191.487C88.105 191.301 87.6658 191.222 87.228 191.256C86.6133 191.225 86.0053 191.396 85.4968 191.743C85.0309 192.116 84.7031 192.634 84.5653 193.215C84.3463 194.159 84.2514 195.128 84.2831 196.097C84.2461 197.074 84.3411 198.052 84.5653 199.004C84.7125 199.563 85.0368 200.06 85.4897 200.42C85.9998 200.769 86.6108 200.94 87.228 200.907ZM88.811 212.108L100.998 188.812H103.599L91.3631 212.108H88.811ZM104.947 211.795C101.113 211.795 99.1967 209.492 99.1983 204.887C99.1983 200.269 101.115 197.961 104.947 197.962C105.77 197.886 106.599 198.011 107.363 198.326C108.127 198.641 108.803 199.137 109.334 199.771C110.316 201.277 110.787 203.059 110.679 204.854C110.679 209.481 108.769 211.794 104.947 211.795ZM104.947 209.711C105.562 209.742 106.17 209.571 106.678 209.224C107.14 208.858 107.472 208.354 107.626 207.785C107.86 206.826 107.96 205.84 107.923 204.854C107.961 203.876 107.858 202.897 107.617 201.949C107.459 201.384 107.125 200.884 106.662 200.523C106.157 200.183 105.555 200.016 104.947 200.046C104.506 200.011 104.065 200.091 103.665 200.279C103.265 200.467 102.921 200.757 102.668 201.119C101.717 203.538 101.717 206.227 102.668 208.646C102.923 209.006 103.267 209.293 103.666 209.48C104.066 209.667 104.507 209.746 104.947 209.711Z" fill="#4C6083"/>
<path d="M152.628 207.953C152.667 208.461 152.587 208.971 152.396 209.443C152.204 209.915 151.907 210.337 151.525 210.675C150.622 211.33 149.519 211.649 148.406 211.578C147.647 211.587 146.895 211.424 146.207 211.103C145.604 210.841 145.096 210.401 144.751 209.842L146.066 209.005C146.302 209.353 146.617 209.64 146.986 209.842C147.414 210.083 147.899 210.204 148.39 210.193C149.088 210.253 149.784 210.051 150.342 209.626C150.565 209.389 150.736 209.108 150.843 208.801C150.95 208.493 150.991 208.167 150.963 207.843C150.963 206.436 150.06 205.733 148.253 205.733H147.381V204.366H148.117C148.801 204.403 149.478 204.218 150.048 203.839C150.28 203.668 150.466 203.443 150.59 203.183C150.713 202.922 150.77 202.636 150.756 202.348C150.775 202.102 150.732 201.855 150.632 201.63C150.531 201.405 150.376 201.209 150.18 201.059C149.73 200.76 149.195 200.613 148.656 200.64C148.165 200.619 147.678 200.728 147.243 200.958C146.809 201.187 146.444 201.528 146.186 201.946L144.862 201.108C145.21 200.493 145.746 200.006 146.39 199.716C147.137 199.393 147.944 199.236 148.757 199.255C149.431 199.239 150.102 199.358 150.73 199.605C151.24 199.804 151.678 200.151 151.989 200.6C152.278 201.049 152.426 201.574 152.414 202.108C152.453 202.783 152.245 203.448 151.829 203.981C151.35 204.487 150.724 204.831 150.039 204.964C150.74 205.001 151.403 205.299 151.895 205.801C152.153 206.094 152.351 206.434 152.477 206.804C152.603 207.173 152.654 207.564 152.628 207.953Z" fill="#ED5F5F"/>
<path d="M158.124 206.798C157.674 206.839 157.222 206.77 156.805 206.597C156.388 206.424 156.02 206.153 155.731 205.805C155.196 204.983 154.939 204.01 154.998 203.03C154.998 200.511 156.04 199.251 158.124 199.252C158.576 199.213 159.031 199.285 159.45 199.462C159.868 199.639 160.237 199.915 160.525 200.266C161.068 201.082 161.332 202.051 161.278 203.03C161.335 204.011 161.067 204.984 160.516 205.798C160.227 206.145 159.858 206.416 159.442 206.59C159.025 206.764 158.573 206.836 158.124 206.798ZM158.124 205.652C158.363 205.673 158.604 205.632 158.822 205.531C159.041 205.431 159.23 205.276 159.37 205.081C159.887 203.758 159.885 202.288 159.363 200.967C159.224 200.772 159.036 200.616 158.819 200.515C158.602 200.414 158.363 200.37 158.124 200.388C157.789 200.372 157.457 200.465 157.18 200.654C156.926 200.857 156.747 201.139 156.672 201.456C156.552 201.972 156.5 202.501 156.517 203.03C156.497 203.563 156.549 204.096 156.672 204.615C156.752 204.92 156.929 205.191 157.176 205.387C157.454 205.578 157.787 205.671 158.124 205.652ZM158.987 211.763L165.634 199.057H167.053L160.379 211.764L158.987 211.763ZM167.789 211.592C165.698 211.592 164.652 210.336 164.653 207.824C164.653 205.304 165.698 204.045 167.789 204.046C168.238 204.005 168.69 204.073 169.107 204.245C169.523 204.417 169.892 204.688 170.181 205.034C170.717 205.855 170.975 206.828 170.915 207.807C170.915 210.329 169.873 211.59 167.789 211.592ZM167.789 210.456C168.124 210.472 168.455 210.379 168.732 210.19C168.985 209.991 169.166 209.715 169.249 209.404C169.377 208.882 169.432 208.344 169.412 207.807C169.432 207.273 169.376 206.739 169.245 206.222C169.159 205.913 168.977 205.641 168.725 205.443C168.449 205.258 168.121 205.166 167.789 205.182C167.548 205.163 167.307 205.207 167.089 205.31C166.87 205.412 166.683 205.57 166.544 205.768C166.027 207.088 166.027 208.555 166.544 209.875C166.684 210.071 166.872 210.227 167.09 210.329C167.308 210.431 167.549 210.475 167.789 210.456Z" fill="#ED5F5F"/>
<path d="M36.6904 97.0345C36.6904 99.7082 37.4833 102.322 38.9688 104.545C40.4542 106.768 42.5655 108.501 45.0358 109.524C47.506 110.547 50.2241 110.815 52.8465 110.293C55.4689 109.772 57.8777 108.484 59.7683 106.594C61.6589 104.703 62.9464 102.294 63.4681 99.6718C63.9897 97.0495 63.722 94.3313 62.6988 91.8611C61.6756 89.3909 59.9428 87.2796 57.7197 85.7941C55.4965 84.3087 52.8828 83.5158 50.2091 83.5158C48.4338 83.5158 46.6759 83.8655 45.0357 84.5448C43.3956 85.2242 41.9053 86.22 40.65 87.4753C39.3946 88.7307 38.3988 90.221 37.7195 91.8611C37.0401 93.5013 36.6904 95.2592 36.6904 97.0345Z" fill="#00C800"/>
<path d="M44.4424 101.625L45.3053 101.5L48.9816 90.9951H51.4628L55.1144 101.5L55.9773 101.625V103.077H51.8614V101.625L52.6996 101.476L52.1681 99.8162H48.2516L47.7201 101.476L48.5582 101.625V103.077H44.4424V101.625ZM48.824 98.0318H51.5957L50.2345 93.7745H50.1851L48.824 98.0318Z" fill="white"/>
<path opacity="0.9" d="M573.943 468.656H933.502C934.698 468.656 936.011 469.697 937.05 471.932C938.073 474.132 938.66 477.153 938.66 480.328V691.859C938.66 694.897 936.198 697.359 933.16 697.359H574.285C571.248 697.359 568.785 694.897 568.785 691.859V480.328C568.785 477.153 569.373 474.132 570.396 471.932C571.435 469.697 572.747 468.656 573.943 468.656C573.943 468.656 573.943 468.656 573.943 468.656Z" fill="white" stroke="#E5ECF5"/>
<path d="M601.015 525.581V523.303C602.923 521.683 604.305 520.468 605.162 519.658C606.019 518.84 606.728 518.116 607.288 517.485C607.849 516.846 608.282 516.227 608.585 515.627C608.897 515.02 609.053 514.358 609.053 513.641C609.053 512.839 608.788 512.196 608.258 511.713C607.729 511.23 607.024 510.989 606.143 510.989C605.31 510.989 604.629 511.172 604.099 511.538C603.577 511.904 603.133 512.383 602.767 512.975L600.968 511.818C601.529 510.853 602.249 510.155 603.129 509.727C604.009 509.291 605.045 509.073 606.237 509.073C607.803 509.073 609.041 509.462 609.952 510.241C610.871 511.012 611.331 512.107 611.331 513.524C611.331 514.241 611.23 514.914 611.027 515.545C610.825 516.168 610.505 516.764 610.069 517.333C609.641 517.902 609.06 518.552 608.328 519.284C607.604 520.016 605.98 521.461 603.456 523.619H611.857V525.581H601.015Z" fill="#4C6083"/>
<path d="M625.468 520.417C625.468 522.107 624.977 523.447 623.996 524.436C623.022 525.426 621.569 525.92 619.638 525.92C618.391 525.92 617.336 525.69 616.472 525.231C615.615 524.764 614.988 524.203 614.591 523.548L616.378 522.38C616.651 522.808 617.056 523.19 617.593 523.525C618.138 523.86 618.804 524.027 619.591 524.027C620.798 524.027 621.706 523.704 622.313 523.058C622.921 522.411 623.224 521.531 623.224 520.417C623.224 519.444 622.913 518.673 622.29 518.104C621.667 517.535 620.775 517.251 619.614 517.251C618.454 517.251 617.449 517.532 616.6 518.092H615.549L616.425 509.412H624.895V511.363H618.201L617.698 515.989C618.033 515.81 618.43 515.674 618.89 515.58C619.357 515.487 619.813 515.44 620.257 515.44C621.916 515.44 623.197 515.861 624.101 516.702C625.012 517.543 625.468 518.782 625.468 520.417Z" fill="#4C6083"/>
<path d="M645.96 525.944C643.102 525.944 641.672 524.226 641.672 520.791C641.672 517.348 643.102 515.627 645.96 515.627C647.471 515.627 648.562 516.079 649.232 516.982C649.901 517.878 650.236 519.14 650.236 520.768C650.236 524.218 648.811 525.944 645.96 525.944ZM633.926 526.177L643.016 508.804H644.955L635.831 526.177H633.926ZM632.746 519.389C631.235 519.389 630.145 518.937 629.475 518.034C628.805 517.13 628.47 515.865 628.47 514.237C628.47 510.794 629.896 509.073 632.746 509.073C634.25 509.073 635.344 509.536 636.029 510.463C636.715 511.382 637.058 512.64 637.058 514.237C637.058 515.849 636.711 517.111 636.018 518.022C635.325 518.934 634.234 519.389 632.746 519.389ZM645.96 524.39C646.498 524.39 646.926 524.269 647.245 524.027C647.573 523.786 647.81 523.428 647.958 522.953C648.106 522.477 648.18 521.749 648.18 520.768C648.18 519.794 648.102 519.074 647.946 518.606C647.798 518.131 647.561 517.777 647.234 517.543C646.914 517.302 646.49 517.181 645.96 517.181C645.181 517.181 644.613 517.45 644.254 517.987C643.904 518.517 643.729 519.451 643.729 520.791C643.729 522.131 643.904 523.066 644.254 523.595C644.613 524.125 645.181 524.39 645.96 524.39ZM632.746 517.824C633.533 517.824 634.102 517.563 634.452 517.041C634.803 516.519 634.978 515.584 634.978 514.237C634.978 512.882 634.799 511.943 634.44 511.421C634.082 510.892 633.518 510.627 632.746 510.627C632.209 510.627 631.777 510.747 631.45 510.989C631.13 511.23 630.9 511.596 630.76 512.087C630.62 512.578 630.55 513.294 630.55 514.237C630.55 515.218 630.62 515.943 630.76 516.41C630.9 516.869 631.13 517.22 631.45 517.461C631.769 517.703 632.201 517.824 632.746 517.824Z" fill="#4C6083"/>
<path d="M660.167 525.581V509.412H662.329V523.619H669.642V525.581H660.167Z" fill="#4C6083"/>
<path d="M681.945 519.483C681.945 521.609 681.485 523.217 680.566 524.308C679.655 525.398 678.323 525.944 676.571 525.944C674.818 525.944 673.478 525.406 672.551 524.331C671.625 523.249 671.161 521.632 671.161 519.483C671.161 517.294 671.625 515.662 672.551 514.587C673.486 513.512 674.826 512.975 676.571 512.975C678.331 512.975 679.667 513.524 680.578 514.622C681.489 515.713 681.945 517.333 681.945 519.483ZM679.865 519.483C679.865 517.816 679.589 516.605 679.036 515.849C678.491 515.094 677.669 514.716 676.571 514.716C675.441 514.716 674.604 515.098 674.059 515.861C673.513 516.616 673.241 517.824 673.241 519.483C673.241 521.079 673.502 522.263 674.024 523.034C674.553 523.805 675.402 524.191 676.571 524.191C677.684 524.191 678.51 523.809 679.047 523.046C679.593 522.283 679.865 521.095 679.865 519.483Z" fill="#4C6083"/>
<path d="M697.846 522.754C697.332 523.58 696.806 524.207 696.269 524.635C695.739 525.056 695.12 525.375 694.411 525.593C693.702 525.811 692.869 525.92 691.911 525.92C689.488 525.92 687.701 525.223 686.548 523.829C685.403 522.427 684.831 520.316 684.831 517.496C684.831 514.685 685.399 512.578 686.536 511.176C687.681 509.774 689.442 509.073 691.817 509.073C692.76 509.073 693.601 509.19 694.341 509.423C695.081 509.657 695.704 509.98 696.21 510.393C696.724 510.798 697.192 511.371 697.612 512.11L695.836 513.279C695.494 512.702 695.147 512.266 694.797 511.97C694.446 511.667 694.025 511.429 693.535 511.258C693.044 511.078 692.472 510.989 691.817 510.989C690.197 510.989 689.005 511.53 688.242 512.613C687.487 513.688 687.109 515.316 687.109 517.496C687.109 519.646 687.483 521.27 688.23 522.368C688.978 523.459 690.182 524.004 691.841 524.004C692.76 524.004 693.558 523.825 694.236 523.467C694.913 523.101 695.521 522.474 696.058 521.586L697.846 522.754Z" fill="#4C6083"/>
<path d="M719.764 522.754C719.25 523.58 718.724 524.207 718.187 524.635C717.657 525.056 717.038 525.375 716.329 525.593C715.62 525.811 714.787 525.92 713.829 525.92C711.406 525.92 709.619 525.223 708.466 523.829C707.321 522.427 706.749 520.316 706.749 517.496C706.749 514.685 707.317 512.578 708.454 511.176C709.599 509.774 711.36 509.073 713.735 509.073C714.678 509.073 715.519 509.19 716.259 509.423C716.999 509.657 717.622 509.98 718.128 510.393C718.642 510.798 719.11 511.371 719.53 512.11L717.754 513.279C717.412 512.702 717.065 512.266 716.714 511.97C716.364 511.667 715.943 511.429 715.453 511.258C714.962 511.078 714.389 510.989 713.735 510.989C712.115 510.989 710.923 511.53 710.16 512.613C709.405 513.688 709.027 515.316 709.027 517.496C709.027 519.646 709.401 521.27 710.148 522.368C710.896 523.459 712.1 524.004 713.759 524.004C714.678 524.004 715.476 523.825 716.154 523.467C716.831 523.101 717.439 522.474 717.976 521.586L719.764 522.754Z" fill="#4C6083"/>
<path d="M732.837 519.483C732.837 521.609 732.378 523.217 731.459 524.308C730.547 525.398 729.216 525.944 727.463 525.944C725.711 525.944 724.371 525.406 723.444 524.331C722.517 523.249 722.054 521.632 722.054 519.483C722.054 517.294 722.517 515.662 723.444 514.587C724.379 513.512 725.718 512.975 727.463 512.975C729.223 512.975 730.559 513.524 731.47 514.622C732.382 515.713 732.837 517.333 732.837 519.483ZM730.758 519.483C730.758 517.816 730.481 516.605 729.928 515.849C729.383 515.094 728.561 514.716 727.463 514.716C726.334 514.716 725.496 515.098 724.951 515.861C724.406 516.616 724.133 517.824 724.133 519.483C724.133 521.079 724.394 522.263 724.916 523.034C725.446 523.805 726.295 524.191 727.463 524.191C728.577 524.191 729.403 523.809 729.94 523.046C730.485 522.283 730.758 521.095 730.758 519.483Z" fill="#4C6083"/>
<path d="M740.852 525.581H738.866L734.578 513.326H736.74L739.918 522.953L743.072 513.326H745.152L740.852 525.581Z" fill="#4C6083"/>
<path d="M748.972 519.693C748.972 521.313 749.249 522.47 749.802 523.163C750.355 523.848 751.243 524.191 752.465 524.191C753.011 524.191 753.49 524.078 753.902 523.852C754.315 523.619 754.712 523.245 755.094 522.731L756.753 523.759C756.286 524.46 755.717 525.001 755.047 525.383C754.378 525.757 753.47 525.944 752.325 525.944C750.503 525.944 749.14 525.414 748.236 524.355C747.34 523.295 746.892 521.695 746.892 519.553C746.892 517.31 747.329 515.654 748.201 514.587C749.081 513.512 750.405 512.975 752.173 512.975C753.762 512.975 754.954 513.435 755.748 514.354C756.543 515.265 756.94 516.671 756.94 518.571V519.693H748.972ZM754.977 518.116C754.962 517.017 754.728 516.165 754.276 515.557C753.832 514.95 753.108 514.646 752.103 514.646C751.145 514.646 750.425 514.922 749.942 515.475C749.467 516.02 749.151 516.901 748.995 518.116H754.977Z" fill="#4C6083"/>
<path d="M766.777 515.312C766.559 515.218 766.248 515.172 765.843 515.172C765.243 515.172 764.663 515.312 764.102 515.592C763.549 515.865 762.902 516.371 762.163 517.111V525.581H760.153V513.326H762.163V515.312C762.723 514.743 763.311 514.241 763.927 513.805C764.55 513.361 765.239 513.139 765.995 513.139C766.501 513.139 766.906 513.22 767.21 513.384L766.777 515.312Z" fill="#4C6083"/>
<path d="M770.376 519.693C770.376 521.313 770.652 522.47 771.205 523.163C771.758 523.848 772.646 524.191 773.869 524.191C774.414 524.191 774.893 524.078 775.306 523.852C775.719 523.619 776.116 523.245 776.498 522.731L778.157 523.759C777.69 524.46 777.121 525.001 776.451 525.383C775.781 525.757 774.874 525.944 773.729 525.944C771.906 525.944 770.543 525.414 769.64 524.355C768.744 523.295 768.296 521.695 768.296 519.553C768.296 517.31 768.732 515.654 769.605 514.587C770.485 513.512 771.809 512.975 773.577 512.975C775.166 512.975 776.358 513.435 777.152 514.354C777.947 515.265 778.344 516.671 778.344 518.571V519.693H770.376ZM776.381 518.116C776.366 517.017 776.132 516.165 775.68 515.557C775.236 514.95 774.512 514.646 773.507 514.646C772.549 514.646 771.829 514.922 771.346 515.475C770.871 516.02 770.555 516.901 770.399 518.116H776.381Z" fill="#4C6083"/>
<path d="M789.28 525.581V524.366C788.82 524.81 788.267 525.184 787.62 525.488C786.974 525.792 786.285 525.944 785.553 525.944C784.08 525.944 782.943 525.391 782.141 524.284C781.339 523.171 780.938 521.593 780.938 519.553C780.938 517.551 781.374 515.954 782.246 514.763C783.119 513.571 784.326 512.975 785.868 512.975C787.106 512.975 788.244 513.427 789.28 514.33V508.185H791.301V525.581H789.28ZM789.28 516.083C788.212 515.203 787.161 514.763 786.125 514.763C785.214 514.763 784.466 515.148 783.882 515.919C783.305 516.683 783.017 517.878 783.017 519.506C783.017 522.598 783.991 524.144 785.938 524.144C786.577 524.144 787.184 523.985 787.761 523.665C788.345 523.346 788.851 522.98 789.28 522.567V516.083Z" fill="#4C6083"/>
<rect x="594.605" y="549.509" width="327.806" height="9.57098" rx="4" fill="#DDE6FF"/>
<rect x="594.605" y="549.509" width="270.38" height="9.57098" rx="4" fill="#99E0AD"/>
<rect x="594.605" y="585.4" width="150.743" height="11.9637" rx="5" fill="#DCE6FF"/>
<rect x="594.605" y="616.506" width="112.459" height="11.9637" rx="5" fill="#DCE6FF"/>
<rect x="596.998" y="647.611" width="155.528" height="11.9637" rx="5" fill="#DCE6FF"/>
<g filter="url(#filter0_d)">
<path d="M529.096 202.111V275.522C529.096 276.314 529.477 277.074 530.157 277.634C530.836 278.194 531.757 278.509 532.719 278.509H610.438C610.944 278.509 611.445 278.596 611.907 278.765C612.37 278.934 612.785 279.182 613.125 279.491L617.534 283.503L620.338 286.055C620.678 286.364 621.092 286.611 621.554 286.78C622.017 286.949 622.517 287.037 623.023 287.037C623.529 287.037 624.03 286.949 624.492 286.78C624.955 286.611 625.369 286.364 625.709 286.055L628.511 283.503L632.92 279.491C633.26 279.182 633.675 278.935 634.138 278.766C634.6 278.597 635.101 278.509 635.607 278.509H716.124C717.085 278.509 718.007 278.194 718.686 277.634C719.366 277.074 719.747 276.314 719.747 275.522V202.111C719.747 201.719 719.654 201.33 719.472 200.968C719.29 200.606 719.023 200.277 718.686 199.999C718.35 199.722 717.95 199.502 717.511 199.352C717.071 199.202 716.6 199.125 716.124 199.125H532.719C532.243 199.125 531.772 199.202 531.332 199.352C530.893 199.502 530.493 199.722 530.157 199.999C529.82 200.277 529.553 200.606 529.371 200.968C529.189 201.33 529.096 201.719 529.096 202.111Z" fill="white"/>
</g>
<path d="M549.936 223.148V231.959H548.604V223.148H545.28V221.939H553.259V223.148H549.936Z" fill="#4C6083"/>
<path d="M559.595 228.18C559.595 229.498 559.31 230.494 558.74 231.17C558.176 231.846 557.35 232.184 556.264 232.184C555.178 232.184 554.348 231.851 553.773 231.185C553.199 230.514 552.912 229.512 552.912 228.18C552.912 226.824 553.199 225.812 553.773 225.146C554.353 224.48 555.183 224.147 556.264 224.147C557.355 224.147 558.183 224.487 558.748 225.168C559.312 225.844 559.595 226.848 559.595 228.18ZM558.306 228.18C558.306 227.147 558.135 226.396 557.792 225.928C557.454 225.46 556.945 225.226 556.264 225.226C555.564 225.226 555.045 225.462 554.707 225.935C554.369 226.404 554.201 227.152 554.201 228.18C554.201 229.169 554.362 229.903 554.686 230.381C555.014 230.859 555.54 231.098 556.264 231.098C556.954 231.098 557.466 230.861 557.799 230.388C558.137 229.915 558.306 229.179 558.306 228.18Z" fill="#4C6083"/>
<path d="M565.474 231.959C564.991 232.109 564.513 232.184 564.04 232.184C563.268 232.184 562.713 231.981 562.375 231.576C562.042 231.17 561.875 230.533 561.875 229.664V225.407H560.789V224.364H561.875V222.25H563.121V224.364H565.047V225.407H563.121V229.425C563.121 230.038 563.181 230.478 563.302 230.743C563.427 231.009 563.702 231.141 564.127 231.141C564.494 231.141 564.834 231.074 565.148 230.939L565.474 231.959Z" fill="#4C6083"/>
<path d="M571.426 231.959V231.011C571.039 231.349 570.651 231.629 570.26 231.851C569.869 232.073 569.427 232.184 568.935 232.184C568.211 232.184 567.651 231.964 567.255 231.525C566.864 231.081 566.669 230.514 566.669 229.824C566.669 229.302 566.77 228.87 566.973 228.527C567.18 228.18 567.477 227.907 567.863 227.709C568.254 227.507 568.819 227.362 569.558 227.275L571.426 227.108V226.739C571.426 226.155 571.261 225.757 570.933 225.544C570.61 225.332 570.161 225.226 569.586 225.226C569.075 225.226 568.679 225.315 568.399 225.494C568.124 225.672 567.926 225.865 567.805 226.073L566.784 225.45C567.016 225.03 567.368 224.709 567.842 224.487C568.319 224.26 568.911 224.147 569.615 224.147C570.706 224.147 571.488 224.345 571.961 224.741C572.434 225.137 572.671 225.822 572.671 226.797V231.959H571.426ZM571.426 228.108L570.209 228.223C569.384 228.296 568.802 228.457 568.464 228.708C568.126 228.955 567.957 229.317 567.957 229.795C567.957 230.248 568.071 230.574 568.298 230.772C568.525 230.97 568.865 231.069 569.319 231.069C569.507 231.069 569.693 231.035 569.876 230.968C570.06 230.895 570.241 230.808 570.419 230.707C570.598 230.601 570.769 230.482 570.933 230.352C571.102 230.217 571.266 230.087 571.426 229.961V228.108Z" fill="#4C6083"/>
<path d="M575.133 231.959V221.178H576.378V231.959H575.133Z" fill="#4C6083"/>
<path d="M584.35 222.438C584.35 222.728 584.285 222.926 584.154 223.032C584.024 223.133 583.816 223.184 583.532 223.184C583.228 223.184 583.018 223.119 582.902 222.989C582.786 222.858 582.728 222.675 582.728 222.438C582.728 222.182 582.791 221.997 582.916 221.881C583.042 221.76 583.247 221.7 583.532 221.7C583.826 221.7 584.036 221.758 584.162 221.873C584.287 221.985 584.35 222.173 584.35 222.438ZM582.909 231.959V224.364H584.154V231.959H582.909Z" fill="#4C6083"/>
<path d="M591.807 229.91C591.807 230.62 591.556 231.177 591.054 231.583C590.552 231.984 589.838 232.184 588.911 232.184C588.279 232.184 587.712 232.066 587.21 231.829C586.708 231.588 586.341 231.25 586.109 230.815L587.108 230.207C587.49 230.82 588.103 231.127 588.947 231.127C589.498 231.127 589.908 231.023 590.178 230.815C590.453 230.603 590.591 230.318 590.591 229.961C590.591 229.749 590.543 229.577 590.446 229.447C590.35 229.312 590.2 229.196 589.997 229.099C589.795 228.998 589.379 228.863 588.752 228.694C587.849 228.486 587.212 228.199 586.841 227.832C586.474 227.466 586.29 226.978 586.29 226.37C586.29 225.699 586.532 225.161 587.014 224.755C587.497 224.35 588.166 224.147 589.02 224.147C589.681 224.147 590.236 224.277 590.685 224.538C591.134 224.799 591.462 225.112 591.67 225.479L590.678 226.087C590.282 225.494 589.72 225.197 588.991 225.197C588.576 225.197 588.223 225.289 587.934 225.472C587.649 225.655 587.507 225.94 587.507 226.326C587.507 226.669 587.632 226.918 587.883 227.072C588.134 227.227 588.528 227.369 589.063 227.499C589.923 227.721 590.516 227.929 590.844 228.122C591.173 228.315 591.414 228.554 591.569 228.839C591.728 229.119 591.807 229.476 591.807 229.91Z" fill="#4C6083"/>
<path d="M598.99 229.91C598.99 230.62 598.739 231.177 598.237 231.583C597.735 231.984 597.021 232.184 596.094 232.184C595.461 232.184 594.894 232.066 594.392 231.829C593.89 231.588 593.523 231.25 593.292 230.815L594.291 230.207C594.672 230.82 595.285 231.127 596.13 231.127C596.68 231.127 597.091 231.023 597.361 230.815C597.636 230.603 597.774 230.318 597.774 229.961C597.774 229.749 597.725 229.577 597.629 229.447C597.532 229.312 597.383 229.196 597.18 229.099C596.977 228.998 596.562 228.863 595.935 228.694C595.032 228.486 594.395 228.199 594.023 227.832C593.656 227.466 593.473 226.978 593.473 226.37C593.473 225.699 593.714 225.161 594.197 224.755C594.68 224.35 595.348 224.147 596.202 224.147C596.864 224.147 597.419 224.277 597.868 224.538C598.317 224.799 598.645 225.112 598.852 225.479L597.86 226.087C597.465 225.494 596.902 225.197 596.173 225.197C595.758 225.197 595.406 225.289 595.116 225.472C594.832 225.655 594.689 225.94 594.689 226.326C594.689 226.669 594.815 226.918 595.066 227.072C595.317 227.227 595.71 227.369 596.246 227.499C597.105 227.721 597.699 227.929 598.027 228.122C598.355 228.315 598.597 228.554 598.751 228.839C598.91 229.119 598.99 229.476 598.99 229.91Z" fill="#4C6083"/>
<path d="M605.695 231.959V230.83C605.308 231.216 604.884 231.54 604.42 231.8C603.957 232.056 603.503 232.184 603.059 232.184C602.552 232.184 602.14 232.09 601.821 231.902C601.507 231.708 601.278 231.421 601.133 231.04C600.993 230.654 600.923 230.12 600.923 229.44V224.364H602.169V228.846C602.169 229.57 602.205 230.053 602.277 230.294C602.354 230.535 602.475 230.712 602.639 230.823C602.803 230.929 603.042 230.982 603.356 230.982C603.67 230.982 604.039 230.861 604.464 230.62C604.889 230.374 605.299 230.079 605.695 229.737V224.364H606.94V231.959H605.695Z" fill="#4C6083"/>
<path d="M610.314 228.31C610.314 229.314 610.485 230.031 610.828 230.461C611.171 230.885 611.721 231.098 612.479 231.098C612.817 231.098 613.114 231.028 613.37 230.888C613.625 230.743 613.872 230.511 614.108 230.193L615.136 230.83C614.847 231.264 614.494 231.6 614.079 231.836C613.664 232.068 613.102 232.184 612.392 232.184C611.263 232.184 610.418 231.856 609.858 231.199C609.303 230.543 609.025 229.551 609.025 228.223C609.025 226.833 609.296 225.807 609.836 225.146C610.382 224.48 611.202 224.147 612.298 224.147C613.283 224.147 614.021 224.432 614.514 225.001C615.006 225.566 615.252 226.437 615.252 227.615V228.31H610.314ZM614.036 227.333C614.026 226.652 613.881 226.124 613.601 225.747C613.326 225.371 612.877 225.182 612.255 225.182C611.661 225.182 611.214 225.354 610.915 225.696C610.621 226.034 610.425 226.58 610.329 227.333H614.036Z" fill="#4C6083"/>
<path d="M622.435 229.91C622.435 230.62 622.184 231.177 621.682 231.583C621.18 231.984 620.465 232.184 619.538 232.184C618.906 232.184 618.339 232.066 617.837 231.829C617.335 231.588 616.968 231.25 616.736 230.815L617.736 230.207C618.117 230.82 618.73 231.127 619.575 231.127C620.125 231.127 620.535 231.023 620.805 230.815C621.081 230.603 621.218 230.318 621.218 229.961C621.218 229.749 621.17 229.577 621.073 229.447C620.977 229.312 620.827 229.196 620.624 229.099C620.422 228.998 620.007 228.863 619.379 228.694C618.476 228.486 617.839 228.199 617.468 227.832C617.101 227.466 616.917 226.978 616.917 226.37C616.917 225.699 617.159 225.161 617.641 224.755C618.124 224.35 618.793 224.147 619.647 224.147C620.308 224.147 620.863 224.277 621.312 224.538C621.761 224.799 622.089 225.112 622.297 225.479L621.305 226.087C620.909 225.494 620.347 225.197 619.618 225.197C619.203 225.197 618.851 225.289 618.561 225.472C618.276 225.655 618.134 225.94 618.134 226.326C618.134 226.669 618.259 226.918 618.51 227.072C618.761 227.227 619.155 227.369 619.69 227.499C620.55 227.721 621.143 227.929 621.472 228.122C621.8 228.315 622.041 228.554 622.196 228.839C622.355 229.119 622.435 229.476 622.435 229.91Z" fill="#4C6083"/>
<path d="M546.302 258.439V248.418H552.427V249.627H547.641V252.552H551.732V253.769H547.641V257.222H552.427V258.439H546.302Z" fill="#4C6083"/>
<path d="M558.676 252.074C558.541 252.017 558.347 251.988 558.096 251.988C557.725 251.988 557.365 252.074 557.018 252.248C556.675 252.417 556.274 252.731 555.816 253.189V258.439H554.57V250.844H555.816V252.074C556.163 251.722 556.528 251.411 556.909 251.14C557.295 250.865 557.722 250.728 558.191 250.728C558.504 250.728 558.755 250.778 558.944 250.88L558.676 252.074Z" fill="#4C6083"/>
<path d="M564.555 252.074C564.42 252.017 564.227 251.988 563.976 251.988C563.604 251.988 563.244 252.074 562.897 252.248C562.554 252.417 562.154 252.731 561.695 253.189V258.439H560.45V250.844H561.695V252.074C562.043 251.722 562.407 251.411 562.788 251.14C563.174 250.865 563.602 250.728 564.07 250.728C564.384 250.728 564.635 250.778 564.823 250.88L564.555 252.074Z" fill="#4C6083"/>
<path d="M572.179 254.659C572.179 255.977 571.894 256.974 571.325 257.65C570.76 258.325 569.935 258.663 568.849 258.663C567.762 258.663 566.932 258.33 566.358 257.664C565.783 256.993 565.496 255.992 565.496 254.659C565.496 253.303 565.783 252.292 566.358 251.626C566.937 250.959 567.767 250.626 568.849 250.626C569.939 250.626 570.767 250.967 571.332 251.647C571.897 252.323 572.179 253.327 572.179 254.659ZM570.89 254.659C570.89 253.626 570.719 252.876 570.376 252.408C570.038 251.939 569.529 251.705 568.849 251.705C568.149 251.705 567.63 251.942 567.292 252.415C566.954 252.883 566.785 253.631 566.785 254.659C566.785 255.649 566.947 256.383 567.27 256.86C567.598 257.338 568.124 257.577 568.849 257.577C569.539 257.577 570.05 257.341 570.384 256.868C570.721 256.395 570.89 255.658 570.89 254.659Z" fill="#4C6083"/>
<path d="M578.37 252.074C578.235 252.017 578.042 251.988 577.791 251.988C577.419 251.988 577.059 252.074 576.712 252.248C576.369 252.417 575.968 252.731 575.51 253.189V258.439H574.264V250.844H575.51V252.074C575.857 251.722 576.222 251.411 576.603 251.14C576.989 250.865 577.416 250.728 577.885 250.728C578.198 250.728 578.449 250.778 578.638 250.88L578.37 252.074Z" fill="#4C6083"/>
<path d="M590.577 254.587C590.577 255.832 590.304 256.824 589.759 257.563C589.218 258.296 588.473 258.663 587.522 258.663C586.764 258.663 586.057 258.381 585.4 257.816V261.299H584.155V250.844H585.4V251.604C585.685 251.329 586.028 251.097 586.428 250.909C586.829 250.72 587.259 250.626 587.717 250.626C588.62 250.626 589.322 250.969 589.824 251.655C590.326 252.335 590.577 253.313 590.577 254.587ZM589.288 254.616C589.288 252.695 588.685 251.734 587.478 251.734C587.082 251.734 586.704 251.833 586.341 252.031C585.979 252.229 585.666 252.456 585.4 252.712V256.73C586.047 257.276 586.699 257.548 587.355 257.548C587.92 257.548 588.383 257.312 588.745 256.839C589.107 256.366 589.288 255.625 589.288 254.616Z" fill="#4C6083"/>
<path d="M596.761 252.074C596.625 252.017 596.432 251.988 596.181 251.988C595.81 251.988 595.45 252.074 595.102 252.248C594.76 252.417 594.359 252.731 593.901 253.189V258.439H592.655V250.844H593.901V252.074C594.248 251.722 594.613 251.411 594.994 251.14C595.38 250.865 595.807 250.728 596.275 250.728C596.589 250.728 596.84 250.778 597.028 250.88L596.761 252.074Z" fill="#4C6083"/>
<path d="M604.385 254.659C604.385 255.977 604.1 256.974 603.53 257.65C602.966 258.325 602.14 258.663 601.054 258.663C599.968 258.663 599.138 258.33 598.563 257.664C597.989 256.993 597.702 255.992 597.702 254.659C597.702 253.303 597.989 252.292 598.563 251.626C599.143 250.959 599.973 250.626 601.054 250.626C602.145 250.626 602.973 250.967 603.538 251.647C604.102 252.323 604.385 253.327 604.385 254.659ZM603.096 254.659C603.096 253.626 602.925 252.876 602.582 252.408C602.244 251.939 601.735 251.705 601.054 251.705C600.354 251.705 599.835 251.942 599.497 252.415C599.16 252.883 598.991 253.631 598.991 254.659C598.991 255.649 599.152 256.383 599.476 256.86C599.804 257.338 600.33 257.577 601.054 257.577C601.744 257.577 602.256 257.341 602.589 256.868C602.927 256.395 603.096 255.658 603.096 254.659Z" fill="#4C6083"/>
<path d="M611.241 258.439V253.964C611.241 253.24 611.205 252.757 611.133 252.516C611.06 252.275 610.942 252.101 610.778 251.995C610.614 251.884 610.375 251.828 610.061 251.828C609.743 251.828 609.371 251.949 608.946 252.19C608.521 252.432 608.111 252.726 607.715 253.074V258.439H606.47V250.844H607.715V251.973C608.068 251.621 608.478 251.309 608.946 251.039C609.414 250.764 609.885 250.626 610.358 250.626C611.092 250.626 611.63 250.836 611.973 251.256C612.315 251.671 612.487 252.376 612.487 253.371V258.439H611.241Z" fill="#4C6083"/>
<path d="M615.803 254.79C615.803 255.794 615.974 256.51 616.317 256.94C616.66 257.365 617.21 257.577 617.968 257.577C618.306 257.577 618.603 257.507 618.858 257.367C619.114 257.222 619.36 256.991 619.597 256.672L620.625 257.309C620.335 257.744 619.983 258.079 619.568 258.316C619.153 258.547 618.59 258.663 617.881 258.663C616.751 258.663 615.907 258.335 615.347 257.679C614.792 257.022 614.514 256.03 614.514 254.703C614.514 253.313 614.784 252.287 615.325 251.626C615.87 250.959 616.691 250.626 617.787 250.626C618.772 250.626 619.51 250.911 620.002 251.481C620.495 252.045 620.741 252.917 620.741 254.095V254.79H615.803ZM619.525 253.812C619.515 253.132 619.37 252.603 619.09 252.227C618.815 251.85 618.366 251.662 617.743 251.662C617.15 251.662 616.703 251.833 616.404 252.176C616.109 252.514 615.914 253.059 615.817 253.812H619.525Z" fill="#4C6083"/>
<path d="M655.614 231.959V224.799H653.188V223.865C653.845 223.826 654.34 223.749 654.673 223.633C655.011 223.517 655.274 223.341 655.462 223.104C655.65 222.868 655.817 222.479 655.962 221.939H656.925V231.959H655.614Z" fill="#4C6083"/>
<path d="M667.72 229.099C667.72 230.128 667.409 230.897 666.786 231.409C666.163 231.916 665.282 232.169 664.143 232.169C663.463 232.169 662.84 232.037 662.275 231.771C661.715 231.501 661.305 231.144 661.044 230.7L662.159 229.99C662.338 230.265 662.596 230.502 662.934 230.7C663.277 230.897 663.675 230.996 664.129 230.996C664.882 230.996 665.432 230.837 665.78 230.519C666.132 230.195 666.308 229.691 666.308 229.005C666.308 227.813 665.543 227.217 664.013 227.217H663.274V226.058H663.897C664.587 226.058 665.133 225.911 665.533 225.617C665.934 225.317 666.134 224.895 666.134 224.35C666.134 223.857 665.97 223.493 665.642 223.256C665.319 223.02 664.889 222.902 664.353 222.902C663.436 222.902 662.739 223.271 662.261 224.009L661.138 223.3C661.438 222.774 661.87 222.38 662.435 222.12C662.999 221.859 663.668 221.729 664.44 221.729C665.087 221.729 665.644 221.828 666.113 222.025C666.581 222.223 666.936 222.506 667.177 222.873C667.418 223.235 667.539 223.659 667.539 224.147C667.539 224.818 667.373 225.346 667.039 225.733C666.711 226.119 666.207 226.396 665.526 226.565C666.159 226.614 666.682 226.85 667.097 227.275C667.513 227.7 667.72 228.308 667.72 229.099Z" fill="#4C6083"/>
<path d="M667.72 255.579C667.72 256.607 667.408 257.377 666.786 257.889C666.163 258.395 665.282 258.649 664.143 258.649C663.462 258.649 662.84 258.516 662.275 258.251C661.715 257.98 661.305 257.623 661.044 257.179L662.159 256.469C662.338 256.745 662.596 256.981 662.934 257.179C663.276 257.377 663.675 257.476 664.128 257.476C664.881 257.476 665.432 257.317 665.779 256.998C666.132 256.675 666.308 256.17 666.308 255.485C666.308 254.292 665.543 253.696 664.013 253.696H663.274V252.538H663.897C664.587 252.538 665.132 252.391 665.533 252.096C665.934 251.797 666.134 251.375 666.134 250.829C666.134 250.337 665.97 249.972 665.642 249.736C665.318 249.499 664.889 249.381 664.353 249.381C663.436 249.381 662.738 249.75 662.26 250.489L661.138 249.779C661.437 249.253 661.869 248.86 662.434 248.599C662.999 248.338 663.667 248.208 664.44 248.208C665.087 248.208 665.644 248.307 666.112 248.505C666.58 248.703 666.935 248.985 667.177 249.352C667.418 249.714 667.539 250.139 667.539 250.626C667.539 251.297 667.372 251.826 667.039 252.212C666.711 252.598 666.206 252.876 665.526 253.045C666.158 253.093 666.682 253.329 667.097 253.754C667.512 254.179 667.72 254.787 667.72 255.579Z" fill="#4C6083"/>
<path d="M699.623 229.099C699.623 230.128 699.312 230.897 698.689 231.409C698.066 231.916 697.185 232.169 696.046 232.169C695.366 232.169 694.743 232.037 694.178 231.771C693.618 231.501 693.208 231.144 692.947 230.7L694.062 229.99C694.241 230.265 694.499 230.502 694.837 230.7C695.18 230.897 695.578 230.996 696.032 230.996C696.785 230.996 697.335 230.837 697.683 230.519C698.035 230.195 698.211 229.691 698.211 229.005C698.211 227.813 697.446 227.217 695.916 227.217H695.177V226.058H695.8C696.49 226.058 697.036 225.911 697.436 225.617C697.837 225.317 698.037 224.895 698.037 224.35C698.037 223.857 697.873 223.493 697.545 223.256C697.222 223.02 696.792 222.902 696.256 222.902C695.339 222.902 694.642 223.271 694.164 224.009L693.041 223.3C693.341 222.774 693.773 222.38 694.337 222.12C694.902 221.859 695.571 221.729 696.343 221.729C696.99 221.729 697.547 221.828 698.016 222.025C698.484 222.223 698.839 222.506 699.08 222.873C699.321 223.235 699.442 223.659 699.442 224.147C699.442 224.818 699.275 225.346 698.942 225.733C698.614 226.119 698.11 226.396 697.429 226.565C698.061 226.614 698.585 226.85 699 227.275C699.415 227.7 699.623 228.308 699.623 229.099Z" fill="#91DCA6"/>
<path d="M696.67 258.439V251.278H694.244V250.344C694.901 250.305 695.395 250.228 695.728 250.112C696.066 249.996 696.329 249.82 696.518 249.584C696.706 249.347 696.872 248.959 697.017 248.418H697.98V258.439H696.67Z" fill="#91DCA6"/>
<path fill-rule="evenodd" clip-rule="evenodd" d="M681.794 226.841C682.031 226.604 682.414 226.604 682.65 226.841L685.854 230.044L689.057 226.841C689.294 226.604 689.677 226.604 689.913 226.841C690.15 227.077 690.15 227.46 689.913 227.697L686.282 231.328C686.045 231.565 685.662 231.565 685.426 231.328L681.794 227.697C681.558 227.46 681.558 227.077 681.794 226.841Z" fill="#91DCA6"/>
<path fill-rule="evenodd" clip-rule="evenodd" d="M685.854 222.427C686.188 222.427 686.459 222.698 686.459 223.032V230.396C686.459 230.73 686.188 231.001 685.854 231.001C685.52 231.001 685.249 230.73 685.249 230.396V223.032C685.249 222.698 685.52 222.427 685.854 222.427Z" fill="#91DCA6"/>
<path fill-rule="evenodd" clip-rule="evenodd" d="M681.794 253.32C682.031 253.084 682.414 253.084 682.65 253.32L685.854 256.524L689.057 253.32C689.294 253.084 689.677 253.084 689.913 253.32C690.15 253.557 690.15 253.94 689.913 254.176L686.282 257.808C686.045 258.044 685.662 258.044 685.426 257.808L681.794 254.176C681.558 253.94 681.558 253.557 681.794 253.32Z" fill="#91DCA6"/>
<path fill-rule="evenodd" clip-rule="evenodd" d="M685.854 248.906C686.188 248.906 686.459 249.177 686.459 249.512V256.875C686.459 257.21 686.188 257.481 685.854 257.481C685.52 257.481 685.249 257.21 685.249 256.875V249.512C685.249 249.177 685.52 248.906 685.854 248.906Z" fill="#91DCA6"/>
<path fill-rule="evenodd" clip-rule="evenodd" d="M130.061 204.815C130.386 204.511 130.913 204.511 131.238 204.815L135.643 208.926L140.048 204.815C140.373 204.511 140.9 204.511 141.225 204.815C141.55 205.118 141.55 205.61 141.225 205.913L136.231 210.574C135.906 210.877 135.379 210.877 135.054 210.574L130.061 205.913C129.736 205.61 129.736 205.118 130.061 204.815Z" fill="#ED5F5F"/>
<path fill-rule="evenodd" clip-rule="evenodd" d="M135.643 199.15C136.102 199.15 136.475 199.498 136.475 199.927V209.377C136.475 209.806 136.102 210.154 135.643 210.154C135.183 210.154 134.811 209.806 134.811 209.377V199.927C134.811 199.498 135.183 199.15 135.643 199.15Z" fill="#ED5F5F"/>
<path opacity="0.9" d="M86.7201 410.401H446.12C446.665 410.401 447.273 410.712 447.901 411.461C448.528 412.208 449.128 413.338 449.647 414.832C450.684 417.818 451.276 421.899 451.276 426.178V711.062C451.276 714.099 448.813 716.562 445.776 716.562H87.0645C84.0269 716.562 81.5645 714.099 81.5645 711.062V426.178C81.5645 421.899 82.1559 417.818 83.1932 414.832C83.7124 413.338 84.3123 412.208 84.9389 411.461C85.5677 410.712 86.1751 410.401 86.7201 410.401C86.7201 410.401 86.7201 410.401 86.7201 410.401Z" fill="white" stroke="#E5ECF5"/>
<rect x="188.041" y="510.523" width="150.403" height="8.4734" rx="4.2367" fill="#EBF1FF"/>
<rect x="188.041" y="549.712" width="150.403" height="8.4734" rx="4.2367" fill="#EBF1FF"/>
<rect x="188.041" y="589.961" width="150.403" height="8.4734" rx="4.2367" fill="#EBF1FF"/>
<rect x="188.041" y="629.15" width="150.403" height="8.4734" rx="4.2367" fill="#EBF1FF"/>
<rect x="188.041" y="669.399" width="150.403" height="8.4734" rx="4.2367" fill="#EBF1FF"/>
<rect x="188.041" y="510.523" width="113.332" height="8.4734" rx="4.2367" fill="#B9CDFD"/>
<rect x="188.041" y="549.712" width="64.6097" height="8.4734" rx="4.2367" fill="#B9CDFD"/>
<rect x="188.041" y="589.961" width="8.4734" height="8.4734" rx="4.2367" fill="#B9CDFD"/>
<rect x="188.041" y="629.15" width="82.6157" height="8.4734" rx="4.2367" fill="#B9CDFD"/>
<rect x="188.041" y="669.399" width="144.048" height="8.4734" rx="4.2367" fill="#B9CDFD"/>
<rect x="109.662" y="547.594" width="59.3138" height="11.6509" rx="5" fill="#DCE6FF"/>
<rect x="109.662" y="587.842" width="59.3138" height="11.6509" rx="5" fill="#DCE6FF"/>
<rect x="109.662" y="627.032" width="59.3138" height="11.6509" rx="5" fill="#DCE6FF"/>
<rect x="109.662" y="667.281" width="59.3138" height="11.6509" rx="5" fill="#DCE6FF"/>
<rect x="352.213" y="547.594" width="20.1243" height="11.6509" rx="5" fill="#DCE6FF"/>
<rect x="352.213" y="587.842" width="20.1243" height="11.6509" rx="5" fill="#DCE6FF"/>
<rect x="352.213" y="627.032" width="20.1243" height="11.6509" rx="5" fill="#DCE6FF"/>
<rect x="352.213" y="667.281" width="20.1243" height="11.6509" rx="5" fill="#DCE6FF"/>
<path d="M109.173 466.676V464.391C111.087 462.766 112.474 461.547 113.333 460.735C114.192 459.914 114.903 459.188 115.466 458.555C116.028 457.914 116.462 457.293 116.767 456.692C117.079 456.082 117.235 455.418 117.235 454.7C117.235 453.895 116.97 453.25 116.438 452.766C115.907 452.282 115.2 452.039 114.317 452.039C113.481 452.039 112.798 452.223 112.267 452.59C111.743 452.957 111.298 453.438 110.931 454.032L109.126 452.872C109.688 451.903 110.411 451.204 111.294 450.774C112.177 450.336 113.216 450.118 114.411 450.118C115.981 450.118 117.224 450.508 118.138 451.289C119.06 452.063 119.521 453.161 119.521 454.582C119.521 455.301 119.419 455.977 119.216 456.61C119.013 457.235 118.692 457.832 118.255 458.403C117.825 458.973 117.243 459.625 116.509 460.36C115.782 461.094 114.153 462.543 111.622 464.707H120.048V466.676H109.173ZM128.239 466.676H125.837L132.247 452.414H123.095V450.457H134.427V452.473L128.239 466.676ZM148.278 462.047C148.278 463.711 147.774 464.957 146.767 465.786C145.759 466.606 144.333 467.016 142.489 467.016C141.388 467.016 140.38 466.801 139.466 466.372C138.56 465.934 137.896 465.356 137.474 464.637L139.278 463.489C139.567 463.934 139.985 464.317 140.532 464.637C141.087 464.957 141.731 465.118 142.466 465.118C143.685 465.118 144.575 464.86 145.138 464.344C145.708 463.821 145.993 463.004 145.993 461.895C145.993 459.965 144.755 459 142.278 459H141.083V457.125H142.091C143.208 457.125 144.091 456.887 144.739 456.411C145.388 455.926 145.712 455.243 145.712 454.36C145.712 453.563 145.446 452.973 144.915 452.59C144.392 452.207 143.696 452.016 142.829 452.016C141.345 452.016 140.216 452.614 139.442 453.809L137.626 452.661C138.11 451.809 138.81 451.172 139.724 450.75C140.638 450.329 141.72 450.118 142.97 450.118C144.017 450.118 144.919 450.278 145.677 450.598C146.435 450.918 147.009 451.375 147.399 451.969C147.79 452.555 147.985 453.243 147.985 454.032C147.985 455.118 147.716 455.973 147.177 456.598C146.646 457.223 145.829 457.672 144.728 457.946C145.751 458.024 146.599 458.407 147.271 459.094C147.942 459.782 148.278 460.766 148.278 462.047ZM164.708 452.414V466.676H162.552V452.414H157.173V450.457H170.087V452.414H164.708ZM180.341 460.559C180.341 462.692 179.88 464.305 178.958 465.399C178.044 466.493 176.708 467.039 174.95 467.039C173.192 467.039 171.849 466.5 170.919 465.422C169.989 464.336 169.524 462.715 169.524 460.559C169.524 458.364 169.989 456.727 170.919 455.649C171.856 454.571 173.2 454.032 174.95 454.032C176.716 454.032 178.056 454.582 178.97 455.684C179.884 456.778 180.341 458.403 180.341 460.559ZM178.255 460.559C178.255 458.887 177.978 457.672 177.423 456.914C176.876 456.157 176.052 455.778 174.95 455.778C173.817 455.778 172.978 456.161 172.431 456.926C171.884 457.684 171.61 458.895 171.61 460.559C171.61 462.161 171.872 463.348 172.396 464.122C172.927 464.895 173.778 465.282 174.95 465.282C176.067 465.282 176.896 464.899 177.435 464.133C177.981 463.368 178.255 462.176 178.255 460.559ZM189.856 466.676C189.075 466.918 188.302 467.039 187.536 467.039C186.286 467.039 185.388 466.711 184.841 466.055C184.302 465.399 184.032 464.368 184.032 462.961V456.071H182.274V454.383H184.032V450.961H186.048V454.383H189.165V456.071H186.048V462.575C186.048 463.567 186.146 464.278 186.341 464.707C186.544 465.137 186.989 465.352 187.677 465.352C188.271 465.352 188.821 465.243 189.329 465.024L189.856 466.676ZM199.489 466.676V465.141C198.864 465.688 198.235 466.141 197.603 466.5C196.97 466.86 196.255 467.039 195.458 467.039C194.286 467.039 193.38 466.684 192.739 465.973C192.106 465.254 191.79 464.336 191.79 463.219C191.79 462.375 191.954 461.676 192.282 461.122C192.618 460.559 193.099 460.118 193.724 459.797C194.356 459.469 195.271 459.235 196.466 459.094L199.489 458.825V458.227C199.489 457.282 199.224 456.637 198.692 456.293C198.169 455.95 197.442 455.778 196.513 455.778C195.685 455.778 195.044 455.922 194.591 456.211C194.146 456.5 193.825 456.813 193.63 457.149L191.978 456.141C192.353 455.461 192.923 454.942 193.688 454.582C194.462 454.215 195.419 454.032 196.56 454.032C198.325 454.032 199.591 454.352 200.356 454.993C201.122 455.633 201.505 456.743 201.505 458.321V466.676H199.489ZM199.489 460.442L197.521 460.629C196.185 460.747 195.243 461.008 194.696 461.414C194.149 461.813 193.876 462.399 193.876 463.172C193.876 463.907 194.06 464.434 194.427 464.754C194.794 465.075 195.345 465.235 196.079 465.235C196.384 465.235 196.685 465.18 196.981 465.071C197.278 464.954 197.571 464.813 197.86 464.649C198.149 464.477 198.427 464.286 198.692 464.075C198.966 463.856 199.231 463.645 199.489 463.442V460.442ZM205.489 466.676V449.227H207.505V466.676H205.489ZM220.407 451.266C220.407 451.735 220.302 452.055 220.091 452.227C219.88 452.391 219.544 452.473 219.083 452.473C218.591 452.473 218.251 452.368 218.063 452.157C217.876 451.946 217.782 451.649 217.782 451.266C217.782 450.852 217.884 450.551 218.087 450.364C218.29 450.168 218.622 450.071 219.083 450.071C219.56 450.071 219.899 450.164 220.103 450.352C220.306 450.532 220.407 450.836 220.407 451.266ZM218.075 466.676V454.383H220.091V466.676H218.075ZM232.478 463.36C232.478 464.508 232.071 465.411 231.259 466.067C230.446 466.715 229.29 467.039 227.79 467.039C226.767 467.039 225.849 466.848 225.036 466.465C224.224 466.075 223.63 465.528 223.255 464.825L224.872 463.84C225.489 464.832 226.481 465.329 227.849 465.329C228.739 465.329 229.403 465.161 229.841 464.825C230.286 464.481 230.509 464.02 230.509 463.442C230.509 463.098 230.431 462.821 230.274 462.61C230.118 462.391 229.876 462.204 229.548 462.047C229.22 461.883 228.548 461.664 227.532 461.391C226.071 461.055 225.04 460.59 224.438 459.997C223.845 459.403 223.548 458.614 223.548 457.629C223.548 456.543 223.938 455.672 224.72 455.016C225.501 454.36 226.583 454.032 227.966 454.032C229.036 454.032 229.935 454.243 230.661 454.664C231.388 455.086 231.919 455.594 232.255 456.188L230.649 457.172C230.009 456.211 229.099 455.731 227.919 455.731C227.247 455.731 226.677 455.879 226.208 456.176C225.747 456.473 225.517 456.934 225.517 457.559C225.517 458.114 225.72 458.516 226.126 458.766C226.532 459.016 227.169 459.247 228.036 459.457C229.427 459.817 230.388 460.153 230.919 460.465C231.45 460.778 231.841 461.164 232.091 461.625C232.349 462.079 232.478 462.657 232.478 463.36ZM244.103 463.36C244.103 464.508 243.696 465.411 242.884 466.067C242.071 466.715 240.915 467.039 239.415 467.039C238.392 467.039 237.474 466.848 236.661 466.465C235.849 466.075 235.255 465.528 234.88 464.825L236.497 463.84C237.114 464.832 238.106 465.329 239.474 465.329C240.364 465.329 241.028 465.161 241.466 464.825C241.911 464.481 242.134 464.02 242.134 463.442C242.134 463.098 242.056 462.821 241.899 462.61C241.743 462.391 241.501 462.204 241.173 462.047C240.845 461.883 240.173 461.664 239.157 461.391C237.696 461.055 236.665 460.59 236.063 459.997C235.47 459.403 235.173 458.614 235.173 457.629C235.173 456.543 235.563 455.672 236.345 455.016C237.126 454.36 238.208 454.032 239.591 454.032C240.661 454.032 241.56 454.243 242.286 454.664C243.013 455.086 243.544 455.594 243.88 456.188L242.274 457.172C241.634 456.211 240.724 455.731 239.544 455.731C238.872 455.731 238.302 455.879 237.833 456.176C237.372 456.473 237.142 456.934 237.142 457.559C237.142 458.114 237.345 458.516 237.751 458.766C238.157 459.016 238.794 459.247 239.661 459.457C241.052 459.817 242.013 460.153 242.544 460.465C243.075 460.778 243.466 461.164 243.716 461.625C243.974 462.079 244.103 462.657 244.103 463.36ZM254.954 466.676V464.848C254.329 465.473 253.642 465.997 252.892 466.418C252.142 466.832 251.407 467.039 250.688 467.039C249.868 467.039 249.2 466.887 248.685 466.582C248.177 466.27 247.806 465.805 247.571 465.188C247.345 464.563 247.231 463.7 247.231 462.598V454.383H249.247V461.637C249.247 462.809 249.306 463.59 249.423 463.981C249.548 464.372 249.743 464.657 250.009 464.836C250.274 465.008 250.661 465.094 251.169 465.094C251.677 465.094 252.274 464.899 252.962 464.508C253.649 464.11 254.313 463.633 254.954 463.079V454.383H256.97V466.676H254.954ZM262.431 460.77C262.431 462.395 262.708 463.555 263.263 464.25C263.817 464.938 264.708 465.282 265.935 465.282C266.481 465.282 266.962 465.168 267.376 464.942C267.79 464.707 268.188 464.332 268.571 463.817L270.235 464.848C269.767 465.551 269.196 466.094 268.524 466.477C267.853 466.852 266.942 467.039 265.794 467.039C263.966 467.039 262.599 466.508 261.692 465.446C260.794 464.383 260.345 462.778 260.345 460.629C260.345 458.379 260.782 456.719 261.657 455.649C262.54 454.571 263.868 454.032 265.642 454.032C267.235 454.032 268.431 454.493 269.228 455.414C270.024 456.329 270.423 457.739 270.423 459.645V460.77H262.431ZM268.454 459.188C268.438 458.086 268.204 457.231 267.751 456.622C267.306 456.012 266.579 455.707 265.571 455.707C264.61 455.707 263.888 455.985 263.403 456.539C262.927 457.086 262.61 457.969 262.454 459.188H268.454ZM282.048 463.36C282.048 464.508 281.642 465.411 280.829 466.067C280.017 466.715 278.86 467.039 277.36 467.039C276.337 467.039 275.419 466.848 274.606 466.465C273.794 466.075 273.2 465.528 272.825 464.825L274.442 463.84C275.06 464.832 276.052 465.329 277.419 465.329C278.31 465.329 278.974 465.161 279.411 464.825C279.856 464.481 280.079 464.02 280.079 463.442C280.079 463.098 280.001 462.821 279.845 462.61C279.688 462.391 279.446 462.204 279.118 462.047C278.79 461.883 278.118 461.664 277.103 461.391C275.642 461.055 274.61 460.59 274.009 459.997C273.415 459.403 273.118 458.614 273.118 457.629C273.118 456.543 273.509 455.672 274.29 455.016C275.071 454.36 276.153 454.032 277.536 454.032C278.606 454.032 279.505 454.243 280.231 454.664C280.958 455.086 281.489 455.594 281.825 456.188L280.22 457.172C279.579 456.211 278.669 455.731 277.489 455.731C276.817 455.731 276.247 455.879 275.778 456.176C275.317 456.473 275.087 456.934 275.087 457.559C275.087 458.114 275.29 458.516 275.696 458.766C276.103 459.016 276.739 459.247 277.606 459.457C278.997 459.817 279.958 460.153 280.489 460.465C281.021 460.778 281.411 461.164 281.661 461.625C281.919 462.079 282.048 462.657 282.048 463.36Z" fill="#4C6083"/>
<path d="M116.231 515.029C116.231 516.039 115.898 516.823 115.231 517.381C114.57 517.938 113.601 518.217 112.325 518.217C111.351 518.217 110.539 518.045 109.888 517.701C109.237 517.357 108.705 516.823 108.294 516.099L109.466 515.318C110.075 516.396 111.018 516.935 112.294 516.935C113.06 516.935 113.661 516.776 114.099 516.459C114.541 516.136 114.763 515.696 114.763 515.138C114.763 514.821 114.692 514.552 114.552 514.334C114.411 514.115 114.226 513.933 113.997 513.787C113.768 513.636 113.505 513.516 113.208 513.427C112.911 513.334 112.601 513.245 112.278 513.162C111.747 513.032 111.252 512.899 110.794 512.763C110.336 512.623 109.937 512.443 109.599 512.224C109.265 512.006 109.002 511.727 108.81 511.388C108.617 511.045 108.521 510.605 108.521 510.068C108.521 509.11 108.828 508.352 109.442 507.795C110.062 507.232 110.987 506.951 112.216 506.951C113.195 506.951 113.976 507.133 114.56 507.498C115.143 507.857 115.604 508.321 115.942 508.888L114.794 509.701C114.513 509.232 114.169 508.87 113.763 508.615C113.362 508.36 112.846 508.232 112.216 508.232C111.513 508.232 110.966 508.388 110.575 508.701C110.185 509.008 109.989 509.422 109.989 509.943C109.989 510.219 110.047 510.451 110.161 510.638C110.281 510.826 110.45 510.985 110.669 511.115C110.888 511.24 111.159 511.349 111.481 511.443C111.81 511.532 112.182 511.628 112.599 511.732C113.088 511.862 113.554 512 113.997 512.146C114.44 512.287 114.825 512.474 115.153 512.709C115.487 512.943 115.75 513.245 115.942 513.615C116.135 513.985 116.231 514.456 116.231 515.029ZM119.442 514.052C119.442 515.136 119.627 515.909 119.997 516.373C120.367 516.831 120.961 517.06 121.778 517.06C122.143 517.06 122.463 516.985 122.739 516.834C123.015 516.677 123.281 516.427 123.536 516.084L124.646 516.771C124.333 517.24 123.953 517.602 123.505 517.857C123.057 518.107 122.45 518.232 121.685 518.232C120.466 518.232 119.554 517.878 118.95 517.17C118.351 516.461 118.052 515.391 118.052 513.959C118.052 512.459 118.343 511.352 118.927 510.638C119.515 509.92 120.401 509.56 121.583 509.56C122.646 509.56 123.442 509.868 123.974 510.482C124.505 511.092 124.771 512.032 124.771 513.302V514.052H119.442ZM123.458 512.998C123.448 512.263 123.291 511.693 122.989 511.287C122.692 510.881 122.208 510.677 121.536 510.677C120.896 510.677 120.414 510.862 120.091 511.232C119.773 511.597 119.562 512.185 119.458 512.998H123.458ZM133.075 516.724C132.82 517.162 132.466 517.524 132.013 517.81C131.56 518.092 130.935 518.232 130.138 518.232C128.935 518.232 128.028 517.87 127.419 517.146C126.81 516.417 126.505 515.339 126.505 513.912C126.505 512.485 126.807 511.404 127.411 510.67C128.015 509.93 128.906 509.56 130.083 509.56C131.432 509.56 132.393 510.06 132.966 511.06L131.864 511.732C131.661 511.414 131.422 511.167 131.146 510.99C130.875 510.813 130.515 510.724 130.067 510.724C129.281 510.724 128.721 511.011 128.388 511.584C128.06 512.151 127.896 512.938 127.896 513.943C127.896 514.709 127.974 515.305 128.13 515.732C128.286 516.159 128.528 516.487 128.856 516.717C129.19 516.946 129.612 517.06 130.122 517.06C130.56 517.06 130.916 516.98 131.192 516.818C131.468 516.651 131.729 516.396 131.974 516.052L133.075 516.724ZM140.052 517.99V516.771C139.635 517.188 139.177 517.537 138.677 517.818C138.177 518.094 137.687 518.232 137.208 518.232C136.661 518.232 136.216 518.131 135.872 517.927C135.534 517.719 135.286 517.409 135.13 516.998C134.979 516.581 134.903 516.006 134.903 515.271V509.795H136.247V514.631C136.247 515.412 136.286 515.933 136.364 516.193C136.448 516.454 136.578 516.644 136.755 516.763C136.932 516.878 137.19 516.935 137.528 516.935C137.867 516.935 138.265 516.805 138.724 516.545C139.182 516.279 139.625 515.961 140.052 515.592V509.795H141.396V517.99H140.052ZM148.489 511.123C148.343 511.06 148.135 511.029 147.864 511.029C147.463 511.029 147.075 511.123 146.7 511.31C146.33 511.493 145.898 511.831 145.403 512.326V517.99H144.06V509.795H145.403V511.123C145.778 510.743 146.172 510.407 146.583 510.115C147 509.818 147.461 509.67 147.966 509.67C148.304 509.67 148.575 509.724 148.778 509.834L148.489 511.123ZM151.958 507.717C151.958 508.029 151.888 508.243 151.747 508.357C151.606 508.467 151.382 508.521 151.075 508.521C150.747 508.521 150.521 508.451 150.396 508.31C150.271 508.17 150.208 507.972 150.208 507.717C150.208 507.441 150.276 507.24 150.411 507.115C150.547 506.985 150.768 506.92 151.075 506.92C151.393 506.92 151.619 506.982 151.755 507.107C151.89 507.227 151.958 507.43 151.958 507.717ZM150.403 517.99V509.795H151.747V517.99H150.403ZM158.497 517.99C157.976 518.151 157.461 518.232 156.95 518.232C156.117 518.232 155.518 518.013 155.153 517.576C154.794 517.138 154.614 516.451 154.614 515.513V510.92H153.442V509.795H154.614V507.513H155.958V509.795H158.036V510.92H155.958V515.256C155.958 515.917 156.023 516.391 156.153 516.677C156.289 516.964 156.586 517.107 157.044 517.107C157.44 517.107 157.807 517.034 158.146 516.888L158.497 517.99ZM159.083 519.732C159.422 519.883 159.815 519.959 160.263 519.959C160.893 519.959 161.427 519.388 161.864 518.248L162.138 517.545L159.146 509.795H160.599L162.856 515.795L165.13 509.795H166.536L163.036 518.615C162.666 519.516 162.271 520.151 161.849 520.521C161.427 520.891 160.877 521.076 160.2 521.076C159.955 521.076 159.695 521.052 159.419 521.006C159.143 520.959 158.919 520.904 158.747 520.842L159.083 519.732Z" fill="#4C6083"/>
<path d="M360.213 514.904C360.213 516.013 359.877 516.844 359.205 517.396C358.533 517.943 357.583 518.217 356.354 518.217C355.619 518.217 354.947 518.073 354.338 517.787C353.734 517.495 353.291 517.11 353.01 516.631L354.213 515.865C354.406 516.162 354.684 516.417 355.049 516.631C355.419 516.844 355.848 516.951 356.338 516.951C357.15 516.951 357.744 516.779 358.119 516.435C358.499 516.086 358.689 515.542 358.689 514.802C358.689 513.516 357.864 512.873 356.213 512.873H355.416V511.623H356.088C356.833 511.623 357.421 511.464 357.854 511.146C358.286 510.823 358.502 510.368 358.502 509.779C358.502 509.248 358.325 508.855 357.971 508.599C357.622 508.344 357.158 508.217 356.58 508.217C355.59 508.217 354.838 508.615 354.322 509.412L353.111 508.646C353.434 508.079 353.9 507.654 354.51 507.373C355.119 507.092 355.84 506.951 356.674 506.951C357.372 506.951 357.973 507.058 358.479 507.271C358.984 507.485 359.367 507.789 359.627 508.185C359.887 508.576 360.018 509.034 360.018 509.56C360.018 510.284 359.838 510.855 359.479 511.271C359.124 511.688 358.58 511.987 357.846 512.17C358.528 512.222 359.093 512.477 359.541 512.935C359.989 513.394 360.213 514.05 360.213 514.904ZM369.494 514.904C369.494 516.013 369.158 516.844 368.486 517.396C367.814 517.943 366.864 518.217 365.635 518.217C364.9 518.217 364.229 518.073 363.619 517.787C363.015 517.495 362.572 517.11 362.291 516.631L363.494 515.865C363.687 516.162 363.965 516.417 364.33 516.631C364.7 516.844 365.13 516.951 365.619 516.951C366.432 516.951 367.025 516.779 367.4 516.435C367.781 516.086 367.971 515.542 367.971 514.802C367.971 513.516 367.145 512.873 365.494 512.873H364.697V511.623H365.369C366.114 511.623 366.702 511.464 367.135 511.146C367.567 510.823 367.783 510.368 367.783 509.779C367.783 509.248 367.606 508.855 367.252 508.599C366.903 508.344 366.439 508.217 365.861 508.217C364.872 508.217 364.119 508.615 363.604 509.412L362.393 508.646C362.715 508.079 363.182 507.654 363.791 507.373C364.4 507.092 365.122 506.951 365.955 506.951C366.653 506.951 367.255 507.058 367.76 507.271C368.265 507.485 368.648 507.789 368.908 508.185C369.169 508.576 369.299 509.034 369.299 509.56C369.299 510.284 369.119 510.855 368.76 511.271C368.406 511.688 367.861 511.987 367.127 512.17C367.809 512.222 368.374 512.477 368.822 512.935C369.27 513.394 369.494 514.05 369.494 514.904Z" fill="#4C6083"/>
<defs>
<filter id="filter0_d" x="525.096" y="199.125" width="198.652" height="95.9116" filterUnits="userSpaceOnUse" color-interpolation-filters="sRGB">
<feFlood flood-opacity="0" result="BackgroundImageFix"/>
<feColorMatrix in="SourceAlpha" type="matrix" values="0 0 0 0 0 0 0 0 0 0 0 0 0 0 0 0 0 0 127 0"/>
<feOffset dy="4"/>
<feGaussianBlur stdDeviation="2"/>
<feColorMatrix type="matrix" values="0 0 0 0 0.788235 0 0 0 0 0.847059 0 0 0 0 0.937255 0 0 0 1 0"/>
<feBlend mode="normal" in2="BackgroundImageFix" result="effect1_dropShadow"/>
<feBlend mode="normal" in="SourceGraphic" in2="effect1_dropShadow" result="shape"/>
</filter>
</defs>
</svg>